<svg width="30" height="28" viewBox="0 0 30 28" fill="none" xmlns="http://www.w3.org/2000/svg">
<path d="M29.9425 5.9275L19.42 16.45C18.2467 17.6203 16.6572 18.2775 15 18.2775C13.3428 18.2775 11.7533 17.6203 10.58 16.45L0.0575 5.9275C0.04 6.125 0 6.30375 0 6.5V21.5C0.00198482 23.157 0.661102 24.7456 1.83277 25.9172C3.00445 27.0889 4.59301 27.748 6.25 27.75H23.75C25.407 27.748 26.9956 27.0889 28.1672 25.9172C29.3389 24.7456 29.998 23.157 30 21.5V6.5C30 6.30375 29.96 6.125 29.9425 5.9275Z" fill="white"/>
<path d="M17.6522 14.6825L29.0697 3.26375C28.5166 2.34665 27.7365 1.58755 26.8047 1.05966C25.8728 0.531779 24.8207 0.252926 23.7497 0.25H6.24969C5.17871 0.252926 4.12656 0.531779 3.19472 1.05966C2.26288 1.58755 1.48279 2.34665 0.929688 3.26375L12.3472 14.6825C13.0517 15.3841 14.0054 15.7781 14.9997 15.7781C15.994 15.7781 16.9477 15.3841 17.6522 14.6825Z" fill="white"/>
</svg>
