<svg width="50" height="50" viewBox="0 0 50 50" fill="none" xmlns="http://www.w3.org/2000/svg">
<g clip-path="url(#clip0_179_112)">
<path d="M25 41.6667C29.4188 41.6617 33.6551 39.9042 36.7797 36.7796C39.9042 33.6551 41.6617 29.4188 41.6667 25V16.6667C41.6667 12.2464 39.9108 8.00716 36.7852 4.88155C33.6595 1.75595 29.4203 0 25 0C20.5798 0 16.3405 1.75595 13.2149 4.88155C10.0893 8.00716 8.33337 12.2464 8.33337 16.6667V25C8.33834 29.4188 10.0959 33.6551 13.2204 36.7796C16.3449 39.9042 20.5813 41.6617 25 41.6667ZM25 4.16667C27.9512 4.17215 30.8054 5.22056 33.0584 7.12666C35.3115 9.03277 36.8182 11.6739 37.3125 14.5833H31.25C30.6975 14.5833 30.1676 14.8028 29.7769 15.1935C29.3862 15.5842 29.1667 16.1141 29.1667 16.6667C29.1667 17.2192 29.3862 17.7491 29.7769 18.1398C30.1676 18.5305 30.6975 18.75 31.25 18.75H37.5V22.9167H31.25C30.6975 22.9167 30.1676 23.1362 29.7769 23.5269C29.3862 23.9176 29.1667 24.4475 29.1667 25C29.1667 25.5525 29.3862 26.0824 29.7769 26.4731C30.1676 26.8638 30.6975 27.0833 31.25 27.0833H37.3125C36.8229 29.9948 35.3174 32.6385 33.0633 34.5452C30.8092 36.4518 27.9524 37.498 25 37.498C22.0477 37.498 19.1909 36.4518 16.9368 34.5452C14.6827 32.6385 13.1772 29.9948 12.6875 27.0833H18.75C19.3026 27.0833 19.8325 26.8638 20.2232 26.4731C20.6139 26.0824 20.8334 25.5525 20.8334 25C20.8334 24.4475 20.6139 23.9176 20.2232 23.5269C19.8325 23.1362 19.3026 22.9167 18.75 22.9167H12.5V18.75H18.75C19.3026 18.75 19.8325 18.5305 20.2232 18.1398C20.6139 17.7491 20.8334 17.2192 20.8334 16.6667C20.8334 16.1141 20.6139 15.5842 20.2232 15.1935C19.8325 14.8028 19.3026 14.5833 18.75 14.5833H12.6875C13.1819 11.6739 14.6886 9.03277 16.9416 7.12666C19.1947 5.22056 22.0489 4.17215 25 4.16667Z" fill="#525050" fill-opacity="0.5"/>
<path d="M47.9167 25C47.3641 25 46.8342 25.2195 46.4435 25.6102C46.0528 26.0009 45.8333 26.5308 45.8333 27.0833C45.8278 32.0545 43.8506 36.8204 40.3355 40.3355C36.8204 43.8506 32.0544 45.8278 27.0833 45.8333H22.9167C17.9457 45.8273 13.1801 43.8499 9.66511 40.3349C6.15012 36.8199 4.17273 32.0543 4.16667 27.0833C4.16667 26.5308 3.94717 26.0009 3.55647 25.6102C3.16577 25.2195 2.63587 25 2.08333 25C1.5308 25 1.0009 25.2195 0.610194 25.6102C0.219493 26.0009 0 26.5308 0 27.0833C0.00716765 33.159 2.4239 38.9838 6.72005 43.2799C11.0162 47.5761 16.841 49.9928 22.9167 50H27.0833C33.159 49.9928 38.9838 47.5761 43.2799 43.2799C47.5761 38.9838 49.9928 33.159 50 27.0833C50 26.5308 49.7805 26.0009 49.3898 25.6102C48.9991 25.2195 48.4692 25 47.9167 25Z" fill="#525050" fill-opacity="0.5"/>
</g>
<defs>
<clipPath id="clip0_179_112">
<rect width="50" height="50" fill="white"/>
</clipPath>
</defs>
</svg>
