<svg width="30" height="30" viewBox="0 0 30 30" fill="none" xmlns="http://www.w3.org/2000/svg">
<path d="M0 9.0625C0 7.295 0.705 5.61375 1.99125 4.3275C4.8475 1.47125 9.92375 0.0425034 15 0.0425034C20.0763 0.0425034 25.1525 1.47125 28.0087 4.32875C29.2937 5.61375 30.0012 7.29625 30 9.06375C30 10.7688 29.0725 12.2375 27.7063 13.0513L24.475 8.46625C23.745 7.43125 22.73 6.62375 21.54 6.1875C20.0163 5.62875 17.7025 5 15 5C12.2975 5 9.98375 5.62875 8.46 6.1875C7.27 6.62375 6.255 7.43 5.525 8.46625L2.29375 13.0513C0.9275 12.2375 0 10.7675 0 9.0625ZM18.75 18.75C18.75 20.8175 17.0675 22.5 15 22.5C12.9325 22.5 11.25 20.8175 11.25 18.75C11.25 16.6825 12.9325 15 15 15C17.0675 15 18.75 16.6825 18.75 18.75ZM29.9975 25.2463C29.9487 27.91 27.6775 30 25.0138 30H4.98625C2.36875 30 0.05 27.8638 0.0025 25.2463C-0.03625 23.1425 0.4175 21.0413 1.31125 19.1388C1.505 18.7275 1.745 18.3388 2 17.9625L7.14625 10.3438C7.755 9.44375 8.63125 8.765 9.66 8.41375C10.9637 7.9675 12.8425 7.5 15 7.5C17.1462 7.5 19.0312 7.97 20.34 8.4175C21.3687 8.77 22.2487 9.4475 22.8575 10.3488L28.3825 18.5288C29.48 20.5863 30.04 22.915 29.9975 25.2463ZM21.25 18.75C21.25 15.3038 18.4463 12.5 15 12.5C11.5538 12.5 8.75 15.3038 8.75 18.75C8.75 22.1963 11.5538 25 15 25C18.4463 25 21.25 22.1963 21.25 18.75Z" fill="white"/>
</svg>
