<svg width="335" height="165" viewBox="0 0 335 165" fill="none" xmlns="http://www.w3.org/2000/svg">
<g clip-path="url(#clip0_179_72)">
<path d="M59.0082 0C60.5972 1.03125 62.401 1.84766 63.6464 3.22266C64.5912 4.29688 64.9778 6.01562 65.1495 7.51953C65.4072 9.92578 65.2354 12.332 65.2354 14.7813C65.2354 61.832 65.2354 108.84 65.2354 155.891C65.2354 156.922 65.2784 157.953 65.0637 158.941C64.3336 162.766 61.0267 165.258 57.1615 165.043C53.2105 164.785 50.2472 161.82 50.0324 157.867C49.9895 157.137 49.9895 156.363 49.9895 155.633C49.9895 106.992 50.0324 58.3516 49.9465 9.71094C49.9465 4.89844 51.5355 1.63281 56.1738 0.0859375C57.0756 0 58.0634 0 59.0082 0Z" fill="#FF8C0E"/>
<path d="M165 88.9453C164.055 91.8672 162.466 94.0586 159.288 94.875C154.564 96.0352 150.098 92.9844 149.84 88.1289C149.668 84.5625 149.711 80.9531 149.797 77.3438C149.883 73.5625 152.632 70.5117 156.196 69.9961C159.847 69.4375 163.282 71.543 164.571 75.0664C164.699 75.4102 164.828 75.7539 165 76.0977C165 80.3516 165 84.6484 165 88.9453Z" fill="#FF8C0E"/>
<path d="M90.1873 82.5C90.1873 97.8399 90.1873 113.223 90.1873 128.563C90.1873 132.645 88.4265 135.438 85.1626 136.555C80.1808 138.273 75.4138 135.137 74.8554 129.809C74.8125 129.379 74.8125 128.949 74.8125 128.52C74.8125 97.7969 74.8125 67.0742 74.8125 36.3945C74.8125 32.5703 76.4874 29.8203 79.6225 28.5313C84.7761 26.4258 90.1444 30.1641 90.1873 35.9219C90.2303 43.0977 90.1873 50.3164 90.1873 57.4922C90.1873 65.8711 90.1873 74.1641 90.1873 82.5Z" fill="#FF8C0E"/>
<path d="M124.759 82.3281C124.759 66.9023 124.759 51.5195 124.759 36.0937C124.759 31.2383 128.195 27.8437 132.833 28.0156C136.269 28.1445 139.318 30.8086 139.876 34.2031C140.005 34.8906 140.048 35.5781 140.048 36.2656C140.048 67.0312 140.048 97.7969 140.048 128.562C140.048 132.645 138.287 135.437 135.066 136.598C129.913 138.402 124.931 134.922 124.759 129.379C124.673 126.801 124.759 124.223 124.759 121.645C124.759 108.496 124.759 95.3906 124.759 82.3281Z" fill="#FF8C0E"/>
<path d="M40.2838 82.543C40.2838 93.3281 40.2838 104.113 40.2838 114.898C40.2838 119.324 37.8358 122.289 33.7559 122.977C29.676 123.664 25.8109 120.871 25.1667 116.789C25.0378 116.016 24.9949 115.199 24.9949 114.383C24.9949 93.0703 24.9949 71.7578 24.9949 50.4453C24.9949 46.1055 27.1422 43.0977 30.7497 42.1953C35.7744 40.9492 40.2838 44.6016 40.2838 49.9727C40.3267 60.8438 40.2838 71.6719 40.2838 82.543Z" fill="#FF8C0E"/>
<path d="M115.096 82.5C115.096 88.8164 115.139 95.1758 115.096 101.492C115.053 106.648 110.673 110 105.648 108.883C102.298 108.152 99.9792 105.316 99.8933 101.664C99.8074 97.3242 99.8503 92.9844 99.8503 88.6016C99.8503 80.1797 99.8074 71.7578 99.8933 63.3359C99.8933 60.0703 102.041 57.3633 105.09 56.332C108.053 55.3438 111.36 56.2891 113.378 58.7383C114.581 60.1992 115.096 61.918 115.096 63.8086C115.053 70.0391 115.096 76.2695 115.096 82.5Z" fill="#FF8C0E"/>
<path d="M15.2889 82.543C15.2889 84.3477 15.3748 86.1953 15.246 88C14.9883 92.168 11.8961 95.0469 7.77329 95.0899C3.56455 95.1328 0.300625 92.211 0.128839 88C-0.0429464 84.3047 -0.0429464 80.6094 0.128839 76.9141C0.300625 72.961 3.77928 69.9102 7.77329 69.9531C11.7244 69.9961 14.9883 73.0039 15.246 76.9141C15.3748 78.7617 15.2889 80.6524 15.2889 82.543Z" fill="#FF8C0E"/>
</g>
<g clip-path="url(#clip1_179_72)">
<path d="M229.008 0C230.597 1.03125 232.401 1.84766 233.646 3.22266C234.591 4.29688 234.978 6.01562 235.15 7.51953C235.407 9.92578 235.235 12.332 235.235 14.7813C235.235 61.832 235.235 108.84 235.235 155.891C235.235 156.922 235.278 157.953 235.064 158.941C234.334 162.766 231.027 165.258 227.162 165.043C223.21 164.785 220.247 161.82 220.032 157.867C219.989 157.137 219.989 156.363 219.989 155.633C219.989 106.992 220.032 58.3516 219.947 9.71094C219.947 4.89844 221.536 1.63281 226.174 0.0859375C227.076 0 228.063 0 229.008 0Z" fill="#FF8C0E"/>
<path d="M335 88.9453C334.055 91.8672 332.466 94.0586 329.288 94.875C324.564 96.0352 320.098 92.9844 319.84 88.1289C319.668 84.5625 319.711 80.9531 319.797 77.3438C319.883 73.5625 322.632 70.5117 326.196 69.9961C329.847 69.4375 333.282 71.543 334.571 75.0664C334.699 75.4102 334.828 75.7539 335 76.0977C335 80.3516 335 84.6484 335 88.9453Z" fill="#FF8C0E"/>
<path d="M260.187 82.5C260.187 97.8399 260.187 113.223 260.187 128.563C260.187 132.645 258.427 135.438 255.163 136.555C250.181 138.273 245.414 135.137 244.855 129.809C244.813 129.379 244.812 128.949 244.812 128.52C244.812 97.7969 244.812 67.0742 244.812 36.3945C244.812 32.5703 246.487 29.8203 249.622 28.5313C254.776 26.4258 260.144 30.1641 260.187 35.9219C260.23 43.0977 260.187 50.3164 260.187 57.4922C260.187 65.8711 260.187 74.1641 260.187 82.5Z" fill="#FF8C0E"/>
<path d="M294.759 82.3281C294.759 66.9023 294.759 51.5195 294.759 36.0937C294.759 31.2383 298.195 27.8437 302.833 28.0156C306.269 28.1445 309.318 30.8086 309.876 34.2031C310.005 34.8906 310.048 35.5781 310.048 36.2656C310.048 67.0312 310.048 97.7969 310.048 128.562C310.048 132.645 308.287 135.437 305.066 136.598C299.913 138.402 294.931 134.922 294.759 129.379C294.673 126.801 294.759 124.223 294.759 121.645C294.759 108.496 294.759 95.3906 294.759 82.3281Z" fill="#FF8C0E"/>
<path d="M210.284 82.543C210.284 93.3281 210.284 104.113 210.284 114.898C210.284 119.324 207.836 122.289 203.756 122.977C199.676 123.664 195.811 120.871 195.167 116.789C195.038 116.016 194.995 115.199 194.995 114.383C194.995 93.0703 194.995 71.7578 194.995 50.4453C194.995 46.1055 197.142 43.0977 200.75 42.1953C205.774 40.9492 210.284 44.6016 210.284 49.9727C210.327 60.8438 210.284 71.6719 210.284 82.543Z" fill="#FF8C0E"/>
<path d="M285.096 82.5C285.096 88.8164 285.139 95.1758 285.096 101.492C285.053 106.648 280.673 110 275.648 108.883C272.298 108.152 269.979 105.316 269.893 101.664C269.807 97.3242 269.85 92.9844 269.85 88.6016C269.85 80.1797 269.807 71.7578 269.893 63.3359C269.893 60.0703 272.041 57.3633 275.09 56.332C278.053 55.3438 281.36 56.2891 283.378 58.7383C284.581 60.1992 285.096 61.918 285.096 63.8086C285.053 70.0391 285.096 76.2695 285.096 82.5Z" fill="#FF8C0E"/>
<path d="M185.289 82.543C185.289 84.3477 185.375 86.1953 185.246 88C184.988 92.168 181.896 95.0469 177.773 95.0899C173.565 95.1328 170.301 92.211 170.129 88C169.957 84.3047 169.957 80.6094 170.129 76.9141C170.301 72.961 173.779 69.9102 177.773 69.9531C181.724 69.9961 184.988 73.0039 185.246 76.9141C185.375 78.7617 185.289 80.6524 185.289 82.543Z" fill="#FF8C0E"/>
</g>
<defs>
<clipPath id="clip0_179_72">
<rect width="165" height="165" fill="white"/>
</clipPath>
<clipPath id="clip1_179_72">
<rect width="165" height="165" fill="white" transform="translate(170)"/>
</clipPath>
</defs>
</svg>
