<svg width="134" height="47" viewBox="0 0 134 47" fill="none" xmlns="http://www.w3.org/2000/svg">
<path fill-rule="evenodd" clip-rule="evenodd" d="M81.9811 16.2873H83.4922C84.7031 16.2873 85.4287 17.5576 85.0663 19.4333C84.7632 20.8851 83.9769 22.2161 82.342 22.64C81.7988 22.7616 81.2541 22.8216 80.7094 22.8216L81.9811 16.2873ZM80.4678 24.1534C84.7632 24.1534 88.0307 23.2455 88.817 19.0101C89.3617 16.3481 87.8491 15.0171 84.5216 15.0171H78.7128L75.5054 31.2931C76.1116 31.2316 76.7163 31.1716 77.3211 31.1716C77.9258 31.1716 78.5305 31.2316 79.0752 31.2931L80.4678 24.1534ZM98.3164 31.2924C97.7717 31.2309 97.2885 31.1709 96.7438 31.1709C96.1991 31.1709 95.7144 31.2309 95.1712 31.2924L95.4728 29.5382C94.1418 30.7477 93.1732 31.4732 91.4805 31.4732C90.2695 31.4732 89.1194 31.05 88.6362 30.0221C88.0915 28.9942 88.4546 27.5409 88.6962 26.3315L89.9672 19.7371C90.5119 19.7972 91.0551 19.8579 91.5998 19.8579C92.1445 19.8579 92.6892 19.7972 93.294 19.7371L91.963 26.3315C91.9029 26.8762 91.7214 27.784 91.8414 28.2679C92.023 28.9942 92.5077 29.5389 93.294 29.5389C95.352 29.5389 95.7752 27.4809 96.0768 25.9683L97.2878 19.7371C97.8325 19.7972 98.3157 19.8579 98.9204 19.8579C99.4651 19.8579 100.008 19.7972 100.553 19.7371L98.3164 31.2924ZM103.58 19.7364C104.125 19.7964 104.608 19.8572 105.153 19.8572C105.698 19.8572 106.302 19.7964 106.847 19.7364L106.242 22.7008C107.089 21.0074 108.421 19.5548 110.779 19.5548C110.416 20.6435 110.115 21.7329 109.993 22.7616L109.752 22.9432C109.508 22.7616 108.965 22.6408 108.602 22.6408C107.573 22.6408 106.604 23.1855 106.121 24.2134C105.758 24.9397 105.576 26.2099 105.456 26.9977L104.608 31.2931C104.064 31.2316 103.52 31.1716 102.976 31.1716C102.431 31.1716 101.886 31.2316 101.342 31.2931L103.58 19.7364ZM114.652 24.395C114.956 23.1247 115.62 20.6435 117.315 20.6435C118.766 20.6435 118.403 23.124 118.162 24.395H114.652ZM121.248 25.5444C122.155 22.1568 121.248 19.5548 117.497 19.5548C114.048 19.5548 111.627 21.9145 110.962 25.2413C110.236 29.1136 111.808 31.4732 115.74 31.4732C116.89 31.4732 118.222 31.1115 119.311 30.4453L120.097 29.1143L119.856 28.8727C119.008 29.4774 117.859 29.9621 116.89 29.9621C114.349 29.9621 113.865 27.9641 114.41 25.5451L121.248 25.5444Z" fill="#525050"/>
<path fill-rule="evenodd" clip-rule="evenodd" d="M79.2592 3.70242C75.2654 -1.68168 65.9476 -1.0169 56.2073 4.5495C54.5132 5.51738 52.759 6.60679 52.759 6.60679L51.1864 4.24713L49.613 10.479L48.222 7.75623L40.8391 16.8317L47.8581 9.38962L49.5515 12.5964L51.1849 5.88051C51.1849 5.88051 52.5159 8.18014 52.5759 8.18014C52.7575 7.99857 53.0599 7.817 53.3623 7.63543C62.9217 1.40352 72.4204 0.133276 76.1726 5.15497C80.7096 11.2661 75.2047 24.2739 63.8903 34.2572C52.5159 44.1798 39.689 47.3258 35.0912 41.2154C34.779 40.8359 34.5337 40.4061 34.3656 39.9444C33.2162 38.3718 32.6715 36.3753 32.5507 34.1357C31.9459 37.7663 32.4299 40.9723 34.1841 43.332C39.3873 50.2902 53.6654 47.0227 66.1292 36.0722C78.593 25.1209 84.4625 10.6599 79.2592 3.70242Z" fill="#525050"/>
<path fill-rule="evenodd" clip-rule="evenodd" d="M5.08173 15.7424C5.808 15.6816 7.50216 15.6816 8.47004 15.7424C10.3458 15.924 10.8905 17.1942 10.5881 18.8276C10.1642 20.9457 8.47004 22.3975 6.05034 22.6398C5.26403 22.7006 4.29615 22.7006 3.75144 22.6398L5.08173 15.7424ZM3.56988 23.6084C4.11458 23.6084 5.62717 23.7292 6.77588 23.5476C10.2242 22.8821 12.2215 21.5504 12.7662 18.7075C13.3109 15.8032 12.0399 14.7752 7.38136 14.7752H3.14597L0 31.0498C0.363137 30.9898 0.725543 30.9898 1.08868 30.9898C1.39105 30.9898 1.69342 30.9898 2.11733 31.0498L3.56988 23.6084ZM16.6377 13.2012C16.9408 13.2619 17.2424 13.2619 17.6056 13.2619C17.9079 13.2619 18.2103 13.2619 18.5735 13.2012L15.0643 31.0491C14.762 30.989 14.4596 30.989 14.1565 30.989C13.7934 30.989 13.491 30.989 13.1886 31.0491L16.6377 13.2012ZM25.3508 28.5701C25.29 28.7516 24.7453 29.1748 24.5645 29.3564C24.0198 29.7796 23.1127 30.2027 22.5072 30.2027C21.0554 30.2027 20.2683 29.4764 20.5714 28.0246C20.9946 25.8465 23.4751 25.6035 25.1692 25.3018L26.0163 25.1203L25.3508 28.5701ZM28.1937 23.5476C28.7384 20.8248 27.649 19.5546 25.1685 19.5546C23.7767 19.5546 22.3849 20.0993 21.0539 20.8248L20.8116 22.1559H21.0539C21.357 21.6719 22.5057 20.5225 24.1999 20.5225C26.0148 20.5225 26.8019 21.5504 26.4388 23.3053C26.2572 24.4555 25.5917 24.5756 23.6559 24.9387C21.357 25.2403 19.1182 25.6035 18.5735 28.3263C18.2103 30.0805 19.4813 31.2306 21.1755 31.2306C22.5672 31.2306 23.7767 30.7474 24.9869 29.7181L25.2293 29.538C25.1685 30.929 26.1371 31.1106 27.4074 30.8675C27.6497 30.8675 28.0121 30.7474 28.1336 30.6259L28.2544 30.1427C26.8026 30.4443 26.9842 29.9611 27.1658 29.0533L28.1937 23.5476ZM30.9772 28.7516C31.3404 29.658 32.2482 30.5051 33.3369 30.5051C34.4871 30.5051 35.8781 29.5987 36.1205 28.327C36.7252 25.121 30.7356 27.2391 31.5219 23.0637C31.9458 20.7648 33.9424 19.5546 36.0597 19.5546C37.3299 19.5546 38.2378 19.9177 38.6009 20.1593C38.2947 20.7118 38.0121 21.277 37.7539 21.8535H37.5115C37.3907 21.0665 36.6652 20.2801 35.8174 20.2801C34.6071 20.2801 33.5185 20.9457 33.2761 22.2767C32.6714 25.3026 38.6002 23.6685 37.8747 27.4799C37.3299 30.0212 34.8495 31.2306 32.7322 31.2306C31.7643 31.2306 30.6749 30.989 29.9486 30.4443C30.251 29.8996 30.5541 29.3564 30.7957 28.7516H30.9772ZM41.9285 19.6754C42.2308 19.7362 42.5332 19.7362 42.8963 19.7362C43.1994 19.7362 43.5018 19.7362 43.865 19.6754L43.4411 21.7327C44.4697 20.4017 45.7407 19.5546 47.3741 19.5546C48.9474 19.5546 50.2177 20.4017 50.3992 21.9143C51.6087 20.4017 52.9405 19.5546 54.5739 19.5546C57.4775 19.5546 58.083 21.248 57.4775 24.1531L56.1465 31.0498C55.8441 30.9898 55.541 30.9898 55.2386 30.9898C54.8755 30.9898 54.5731 30.9898 54.2707 31.0498L55.481 24.6978C55.9041 22.5798 55.9649 20.7648 53.6052 20.7648C51.2456 20.7648 50.4585 22.9429 50.1562 24.6363L48.8859 31.0498C48.5835 30.9898 48.2812 30.9898 47.9788 30.9898C47.6157 30.9898 47.3133 30.9898 47.0109 31.0498L48.3412 24.0924C48.7651 21.8542 48.2204 20.7648 46.4655 20.7648C44.0458 20.7648 43.3195 22.3982 42.9564 24.1531L41.6254 31.0498C41.2622 30.9898 41.0199 30.9898 40.7175 30.9898C40.3544 30.9898 40.052 30.9898 39.7496 31.0498L41.9285 19.6754ZM65.7059 28.5701C65.7059 28.7516 65.1612 29.1748 64.9189 29.3564C64.3742 29.7796 63.5278 30.2027 62.8616 30.2027C61.4098 30.2027 60.6835 29.4764 60.9859 28.0246C61.409 25.8465 63.8895 25.6035 65.5236 25.3018L66.37 25.1203L65.7059 28.5701ZM68.6103 23.5476C69.155 20.8248 68.0055 19.5546 65.5243 19.5546C64.1326 19.5546 62.7415 20.0993 61.4705 20.8248L61.2289 22.1559H61.4713C61.7129 21.6719 62.8623 20.5225 64.6172 20.5225C66.3714 20.5225 67.1577 21.5504 66.8561 23.3053C66.6145 24.4555 65.9483 24.5756 64.0125 24.9387C61.7129 25.2403 59.4747 25.6035 58.9908 28.3263C58.6277 30.0805 59.8979 31.2306 61.532 31.2306C62.9839 31.2306 64.1941 30.7474 65.3442 29.7181L65.6473 29.538C65.5258 30.929 66.4937 31.1106 67.8254 30.8675C68.067 30.8675 68.3701 30.7474 68.5517 30.6259L68.6718 30.1427C67.2207 30.4443 67.3408 29.9611 67.5223 29.0533L68.6103 23.5476ZM119.857 8.24023V9.51048H121.549V14.3506H123.243V9.51048H124.938V8.24023H119.857ZM126.089 8.24023V14.3506H127.721V10.116L129.174 14.3506H130.383L131.834 10.176V14.3506H133.468V8.24023H131.169L129.778 11.9302L128.387 8.24023H126.089Z" fill="#525050"/>
</svg>
