<svg width="187" height="47" viewBox="0 0 187 47" fill="none" xmlns="http://www.w3.org/2000/svg">
<g clip-path="url(#clip0_221_250)">
<path d="M69.5306 45.9362C65.5768 45.4833 62.381 44.0373 59.8134 41.5407C56.6385 38.4549 54.9532 34.2945 54.9532 29.5407C54.9532 19.9852 61.9036 12.9798 71.3666 12.995C73.8617 12.9994 76.3501 13.5753 78.547 14.6598C79.5943 15.177 80.9342 16.06 81.6427 16.7003C81.9111 16.9431 82.1564 17.1412 82.1872 17.1412C82.218 17.1412 82.2444 16.3322 82.2444 15.3447V13.5459H86.3423V45.5356H82.2444V41.8325L81.8704 42.1395C79.1223 44.3934 76.6207 45.4909 73.305 45.8992C72.579 45.9885 70.1884 46.0125 69.5306 45.9362ZM73.3094 41.7018C78.2632 40.8787 81.6977 37.4151 82.6768 32.2541C82.9045 31.0575 82.91 28.0469 82.6878 26.8677C82.4281 25.4925 82.0805 24.4374 81.5029 23.2724C79.7978 19.8339 76.7934 17.7499 72.7902 17.2273C71.404 17.0454 69.3799 17.1619 68.0554 17.4984C64.1929 18.4794 61.2138 21.2494 59.8651 25.1158C59.3052 26.7218 59.1919 27.4665 59.1919 29.5407C59.1919 31.1359 59.2216 31.5137 59.4086 32.3445C60.5307 37.3062 64.128 40.846 68.9178 41.7051C69.9123 41.8825 72.2291 41.8815 73.3094 41.7018ZM33.7884 45.8078C31.0492 45.5236 28.5189 44.6427 26.355 43.2218C25.1449 42.427 23.2528 40.5433 22.4277 39.3129C20.4123 36.3056 19.4453 32.6972 19.5872 28.7111C19.7171 25.0875 20.7357 21.993 22.7137 19.2165C23.0019 18.8104 23.7423 17.9785 24.3562 17.3666C26.5509 15.1846 29.1933 13.8029 32.3781 13.1725C33.6608 12.9188 36.5309 12.823 37.8654 12.9885C44.0127 13.755 48.6177 17.8294 50.1997 23.9039C50.5847 25.3836 50.7585 26.6434 50.8256 28.4574L50.8839 30.0471H23.7225L23.7841 30.9921C24.0591 35.1939 26.5223 38.958 30.1999 40.7959C31.938 41.6648 33.5959 42.0426 35.6806 42.0448C39.2559 42.0491 41.9566 40.956 44.2063 38.5976C44.7685 38.0085 46.0369 36.3219 46.2558 35.8744C46.2833 35.8189 49.8311 38.1174 49.8311 38.1904C49.8311 38.4136 48.3779 40.3277 47.5759 41.1585C44.6145 44.229 40.9445 45.7424 36.1855 45.8546C35.3142 45.8764 34.2361 45.8546 33.7884 45.8078ZM46.6177 26.0609C45.8466 21.2548 42.5331 17.7706 37.8621 16.8549C36.8786 16.6622 34.3363 16.6839 33.3451 16.8941C30.9909 17.3938 29.0272 18.4021 27.3957 19.9504C25.6686 21.5902 24.5179 23.6491 23.9018 26.1992L23.8402 26.4528H46.6793L46.6177 26.0609ZM169.844 45.8012C162.708 45.1436 157.41 40.3571 155.974 33.2743C154.998 28.4541 155.904 23.4281 158.42 19.713C160.829 16.1526 164.262 13.951 168.704 13.1126C169.959 12.8763 173.688 12.8774 174.874 13.1159C177.837 13.7114 180.288 14.9886 182.329 17.003C185.272 19.9058 186.842 24.0117 186.842 28.7993V30.0471L173.313 30.071L159.785 30.0939L159.809 30.8321C159.908 33.736 161.294 36.7727 163.471 38.8491C165.159 40.4595 167.206 41.4786 169.594 41.9C170.656 42.0862 172.936 42.0851 174.005 41.9C177.315 41.3185 179.712 39.7082 181.763 36.6856C182.055 36.2544 182.329 35.9114 182.372 35.9234C182.482 35.9517 185.656 37.9726 185.791 38.1011C185.934 38.235 185.061 39.5383 184.039 40.7164C180.775 44.4718 175.584 46.3315 169.844 45.8012ZM182.649 26.1992C182.649 26.0598 182.568 25.6101 182.469 25.1996C181.349 20.5765 178.051 17.4984 173.477 16.8048C171.733 16.5402 169.653 16.722 167.888 17.2948C164.072 18.5328 161.121 21.6631 160.108 25.5459C160.007 25.9346 159.925 26.2971 159.925 26.3516C159.925 26.4235 163.192 26.4528 171.287 26.4528H182.651L182.65 26.1992H182.649ZM0 29.4939V13.4545H19.3738V17.2327L11.7589 17.2567L4.14517 17.2795L4.12097 31.4081L4.09786 45.5356H0V29.4939ZM93.5138 23.0405V0.640137H97.7052V45.443H93.5138V23.0405ZM104.878 29.4471V13.4523H108.976L108.98 15.5505L108.984 17.6475L109.33 17.2338C110.469 15.8641 111.642 14.9004 112.971 14.2439C114.555 13.4599 115.949 13.118 117.917 13.0244C120.188 12.9188 122.035 13.2672 123.833 14.1404C125.739 15.0659 127.111 16.3965 128.403 18.5752C128.491 18.7255 128.546 18.6841 128.882 18.1963C130.643 15.643 133.264 13.9543 136.546 13.2574C137.848 12.9808 140.707 12.9525 141.968 13.203C144.272 13.6635 146.087 14.5901 147.589 16.0753C149.188 17.6563 150.169 19.5606 150.772 22.2467L151.021 23.3628L151.052 34.4034L151.082 45.4419H146.977V35.5881C146.977 29.4438 146.941 25.3749 146.881 24.7793C146.498 20.9946 144.519 18.2595 141.425 17.2381C140.211 16.8424 138.925 16.7109 137.655 16.8527C133.665 17.2806 131.087 19.4169 130.186 23.0405C129.994 23.8092 129.99 24.0335 129.958 34.6332L129.925 45.4419H125.835V35.7764C125.835 29.9991 125.796 25.6428 125.739 24.9481C125.358 20.301 122.781 17.3557 118.663 16.8603C114.906 16.4074 111.006 18.5785 109.592 21.9125C109 23.3029 109.034 22.5821 109 34.5428L108.969 45.443H104.877V29.4482L104.878 29.4471Z" fill="#525050"/>
</g>
<defs>
<clipPath id="clip0_221_250">
<rect width="186.842" height="46.9714" fill="white"/>
</clipPath>
</defs>
</svg>
