<svg width="219" height="35" viewBox="0 0 219 35" fill="none" xmlns="http://www.w3.org/2000/svg">
<path fill-rule="evenodd" clip-rule="evenodd" d="M118.805 15.3045H111.157C111.043 13.9802 110.599 12.9512 109.825 12.2164C109.05 11.4829 108.038 11.1167 106.786 11.1167C105.352 11.1167 104.237 11.7498 103.44 13.0158C102.643 14.2818 102.245 16.1324 102.245 18.5701C102.245 20.7012 102.518 22.2862 103.064 23.3264C103.793 24.6979 105.09 25.3843 106.958 25.3843C108.21 25.3843 109.194 25.0231 109.911 24.3032C110.628 23.5808 111.067 22.5916 111.225 21.338H118.977C118.614 24.6271 117.39 27.1877 115.307 29.0222C113.222 30.8554 110.531 31.7739 107.231 31.7739C103.178 31.7739 99.991 30.5662 97.6699 28.1521C95.3477 25.7405 94.1871 22.4501 94.1871 18.2859C94.1871 14.2396 95.3539 10.9926 97.6873 8.54376C100.021 6.09488 102.94 4.87107 106.446 4.87107C110.158 4.87107 113.066 5.77589 115.171 7.58679C117.275 9.39521 118.487 11.9682 118.805 15.3045ZM129.16 31.0975H121.28V5.5438H129.16V14.5238H136.605V5.5438H144.484V31.0975H136.605V21.5515H129.16V31.0975ZM158.539 4.86982C162.629 4.86982 165.831 6.24134 168.146 8.98686C170.236 11.4469 171.28 14.5114 171.28 18.1791C171.28 22.393 170.056 25.7405 167.607 28.2229C165.27 30.5886 162.248 31.7739 158.538 31.7739C154.674 31.7739 151.607 30.5886 149.336 28.2229C146.999 25.7864 145.831 22.4141 145.831 18.1096C145.831 14.1105 146.999 10.9045 149.336 8.49038C151.673 6.07626 154.744 4.86982 158.539 4.86982ZM158.472 11.1167C156.834 11.1167 155.606 11.8863 154.8 13.4229C154.126 14.7001 153.789 16.2863 153.789 18.1791C153.789 20.1675 154.102 21.7985 154.733 23.0781C155.542 24.709 156.81 25.527 158.54 25.527C160.024 25.527 161.193 24.8456 162.046 23.4852C162.901 22.1249 163.328 20.3562 163.328 18.1791C163.328 16.2392 162.957 14.6306 162.216 13.3521C161.337 11.8615 160.091 11.1167 158.472 11.1167ZM180.583 31.0975H172.848V5.5438H192.181V11.5065H180.583V16.156H189.431V22.1187H180.583V31.0975ZM193.541 19.954V5.5438H201.916V20.8403C201.916 22.3309 202.142 23.4319 202.59 24.1418C203.185 25.0628 204.271 25.5258 205.856 25.5258C207.301 25.5258 208.328 25.0988 208.944 24.2486C209.489 23.4902 209.761 22.3557 209.761 20.8403V5.5438H218.136V19.99C218.136 24.0599 217.155 27.04 215.191 28.9328C213.227 30.8256 210.115 31.7739 205.856 31.7739C201.74 31.7739 198.699 30.9088 196.736 29.1823C194.605 27.2895 193.541 24.2126 193.541 19.954ZM57.6613 2.99935C49.4422 2.12307 40.9574 1.98777 31.4374 4.79907C16.4947 9.21275 12.5787 17.17 24.4098 22.9664C30.5189 25.9602 38.0939 26.4815 44.2924 26.6515C44.3781 27.1952 44.007 27.7376 43.1791 28.28C32.9231 30.9001 22.5629 30.4471 12.4124 26.3933C-0.399184 21.2809 -5.37264 14.4208 7.61396 7.54087C14.7483 3.76143 23.1016 2.02501 32.552 0.941453C41.2863 -0.058948 49.8642 -0.0291667 58.3477 1.54094L57.6613 2.99935Z" fill="#525050"/>
<path fill-rule="evenodd" clip-rule="evenodd" d="M56.9754 4.36994L56.5459 5.39889C46.0206 5.24126 40.125 10.6702 47.8911 13.9681C52.4599 15.9081 56.4119 16.6131 59.2033 18.7678C63.7312 22.263 63.545 26.0238 58.6895 29.9944C44.9383 37.3422 28.912 35.015 12.4116 30.6807L12.5829 29.7374C25.953 32.9199 39.3716 34.8214 50.4629 27.8508C54.0723 25.5844 53.1575 21.3656 48.3206 19.6254L41.8924 17.3106C33.5355 14.302 33.4796 9.67728 41.036 6.08403C46.1286 3.66246 51.5837 3.44152 56.9754 4.36994ZM63.231 2.39893C64.883 2.39893 66.231 3.74686 66.231 5.39889C66.231 7.05092 64.8843 8.39885 63.231 8.39885C61.5777 8.39885 60.2311 7.05216 60.2311 5.39889C60.2311 3.74562 61.579 2.39893 63.231 2.39893Z" fill="#525050"/>
<path fill-rule="evenodd" clip-rule="evenodd" d="M64.3456 3.42773C65.1003 3.42773 65.7172 4.0446 65.7172 4.79925C65.7172 5.55389 65.1003 6.16953 64.3456 6.16953C63.591 6.16953 62.9741 5.55389 62.9741 4.79925C62.9741 4.0446 63.5898 3.42773 64.3456 3.42773Z" fill="#525050"/>
<path fill-rule="evenodd" clip-rule="evenodd" d="M73.1729 4.02734C74.2178 4.02931 75.2193 4.44526 75.9581 5.18411C76.697 5.92295 77.1129 6.92448 77.1149 7.96937C77.1149 10.1402 75.345 11.9114 73.1729 11.9114C71.0008 11.9114 69.2308 10.1402 69.2308 7.96937C69.2328 6.92448 69.6488 5.92295 70.3876 5.18411C71.1265 4.44526 72.128 4.02931 73.1729 4.02734Z" fill="#525050"/>
<path fill-rule="evenodd" clip-rule="evenodd" d="M74.6374 5.37988C75.6304 5.37988 76.4396 6.18914 76.4396 7.1821C76.4396 8.17505 75.6304 8.98431 74.6374 8.98431C73.6445 8.98431 72.8352 8.17505 72.8352 7.1821C72.8352 6.18914 73.6445 5.37988 74.6374 5.37988Z" fill="#525050"/>
<path fill-rule="evenodd" clip-rule="evenodd" d="M86.0705 0.514648C87.4221 0.516946 88.7177 1.05487 89.6734 2.01059C90.6291 2.96631 91.167 4.26188 91.1693 5.61347C91.1693 8.42229 88.8781 10.7123 86.0705 10.7123C83.2629 10.7123 80.9717 8.42229 80.9717 5.61347C80.974 4.26188 81.5119 2.96631 82.4676 2.01059C83.4233 1.05487 84.7189 0.516946 86.0705 0.514648Z" fill="#525050"/>
<path fill-rule="evenodd" clip-rule="evenodd" d="M87.964 2.26221C89.2474 2.26221 90.295 3.30977 90.295 4.59316C90.294 5.21107 90.0481 5.80339 89.6112 6.24032C89.1742 6.67724 88.5819 6.92315 87.964 6.92413C87.3461 6.92315 86.7538 6.67724 86.3169 6.24032C85.8799 5.80339 85.634 5.21107 85.6331 4.59316C85.6331 3.30977 86.6794 2.26221 87.964 2.26221Z" fill="#525050"/>
</svg>
