<svg width="190" height="47" viewBox="0 0 190 47" fill="none" xmlns="http://www.w3.org/2000/svg">
<path d="M40.455 1.11481C35.8002 1.07294 31.4039 3.43734 31.4039 3.43734C31.4039 3.43734 26.9748 6.13348 25.357 10.1734C25.2734 10.5657 16.4988 27.6703 16.4988 27.6703C5.37651 24.4377 -0.000808209 30.9878 0.168678 33.5159C2.85576 40.2912 15.9956 35.4714 17.3075 33.9028C18.0337 33.5113 18.5017 33.9802 18.5017 33.9802C18.5017 33.9802 21.7196 36.1335 22.0833 36.303C22.4467 36.4725 24.2789 36.2256 24.2789 36.2256C25.7037 36.1167 28.246 33.3103 28.5539 33.2835C29.0291 33.2849 29.6022 36.3925 31.5582 36.3417C33.9051 36.7976 36.4494 34.1352 36.4494 34.1352C36.7844 33.6588 36.9116 34.0188 36.9116 34.0188C36.8576 36.939 39.2172 36.424 39.9156 36.3417C42.2344 35.3932 47.9139 29.7691 47.2721 31.4255C47.0489 31.8742 45.3078 35.1414 45.3078 35.1414C45.1128 36.0119 45.7315 35.9545 45.7315 35.9545L49.8139 35.9158C50.5119 35.4963 54.0838 27.7653 53.6655 28.8318C54.9528 26.4903 57.8636 25.6576 57.8636 25.6576C58.1431 25.5738 58.0176 25.9671 58.0176 25.9671L53.2418 35.4899C53.1585 35.742 53.6267 35.9932 53.6267 35.9932L57.7863 35.9158C58.3454 35.8615 61.8305 28.6768 61.8305 28.6768C62.779 26.8538 66.1443 25.8123 66.1443 25.8123C66.7585 25.7015 66.3368 26.3156 66.3368 26.3156L63.0631 33.2061C62.5656 36.3344 65.1808 36.5178 66.2983 36.3804C67.4158 36.2152 69.233 35.5826 72.8072 32.8963C73.5339 32.3373 73.6931 32.8997 73.6931 33.0126C73.7238 36.8596 77.9297 36.419 77.9297 36.419C79.187 36.7314 84.2909 36.6105 88.5596 28.0575C86.9989 33.8658 90.181 35.4475 90.293 35.645C90.405 35.8413 92.1157 36.4418 92.7577 36.303C99.2683 36.883 102.001 26.7028 102.001 26.7028C103.466 25.5981 103.838 25.2811 104.428 24.9606C105.881 25.1044 106.271 25.1457 106.97 25.2317C107.528 25.43 107.022 25.9541 106.854 26.1218C100.208 31.327 103.125 35.3409 103.349 35.2578C106.258 39.2252 112.295 32.3093 113.44 32.1996C114.897 38.0452 119.33 35.5003 119.526 35.5286C119.135 36.6789 117.998 39.5234 117.022 41.3739C114.984 44.2612 111.784 41.0257 111.784 41.0257L110.975 40.987C110.585 41.4911 110.821 42.0709 110.821 42.0709C111.66 43.4213 112.734 45.2899 116.059 45.7484C119.412 45.8983 121.336 42.187 121.336 42.187C121.336 42.187 126.036 33.4703 126.343 32.4317C127.767 31.144 130.238 29.2846 132.081 27.9414C133.282 27.6922 129.076 34.5856 128.769 35.5673C128.686 36.1292 128.885 36.1482 128.885 36.1482C128.885 36.1482 132.083 36.3079 132.698 36.2256C133.312 36.143 136.297 29.0155 137.358 27.6706C138.279 26.1285 141.248 24.6897 141.248 24.6897C141.89 24.5512 141.672 25.3091 141.672 25.3091L137.743 33.2837C136.795 36.622 139.463 36.6393 139.938 36.6128C141.223 36.5314 146.024 33.748 146.024 33.748C146.694 33.2442 146.679 34.0578 146.679 34.0578C146.623 35.125 147.77 36.8732 148.72 36.6512C152.129 36.9694 157.284 31.2779 157.424 31.8124C157.452 31.925 155.498 35.7997 155.498 35.7997C155.582 36.1087 155.922 36.2643 155.922 36.2643C155.922 36.2643 159.223 36.3007 160.005 36.303C160.787 36.3053 164.345 27.7586 165.127 27.2831C166.718 25.631 168.46 25.4742 168.516 25.5025C169.103 25.4765 165.195 31.7497 164.973 33.0123C164.11 36.633 166.668 36.5738 166.668 36.5738C168.707 36.8888 173.708 33.3227 173.793 33.6317C174.379 33.0441 174.448 33.748 174.448 33.748V34.0188C174.785 36.9408 176.489 36.6125 176.489 36.6125C178.445 37.1235 186.079 30.6898 186.079 30.6898L184.924 29.4125L180.148 32.8963C179.757 33.0923 179.531 32.6641 179.531 32.6641L184.885 22.2896C185.136 22.0378 184.769 21.7476 184.769 21.7476H179.955C179.62 22.1114 179.416 22.3669 179.416 22.3669L175.064 30.8835L170.288 33.2448C169.786 33.3834 169.903 32.8579 169.903 32.8579C169.903 32.8579 173.882 25.0097 174.217 23.9154C174.44 23.4107 174.332 22.5994 174.332 22.5994C173.017 19.5342 167.703 23.5022 166.976 23.5285C166.948 23.5565 167.631 22.1348 167.631 22.1348C167.826 21.7138 167.438 21.7089 167.438 21.7089L162.971 21.6702C162.971 21.6702 162.984 21.3512 162.816 21.6315C162.649 21.9119 159.774 27.3221 159.774 27.3221L152.572 32.7802C151.957 32.8914 152.109 32.4707 152.109 32.4707L157.386 22.2122L157.424 21.7863L152.34 21.6702L148.142 29.7994C147.919 30.0517 143.521 32.5481 143.521 32.5481C142.85 32.7432 142.827 32.1609 142.827 32.1609L146.717 24.5737C147.598 21.6136 144.381 20.7434 142.789 21.3217C141.712 21.7115 140.709 22.0574 140.709 22.0574C140.709 22.0574 140.391 22.1406 140.67 21.7476C141.144 21.0749 146.062 11.2957 146.062 11.2957C146.174 11.0147 145.908 10.8311 145.908 10.8311L141.441 10.7924C141.077 10.9593 141.017 11.2183 141.017 11.2183L134.662 23.3347L129.424 27.2834C129.089 27.5072 129.077 27.1283 129.077 27.1283L131.696 22.1348V21.6313L126.997 21.5926L126.227 22.2119C125.696 21.087 122.999 21.1003 122.915 21.128C117.271 20.9432 114.095 28.9863 114.095 28.9863C110.955 31.7226 109.504 32.574 108.472 32.7412C107.614 32.7897 107.355 32.0829 107.355 32.0829C106.159 28.4011 113.671 24.9216 113.671 24.9216C113.923 24.7816 115.005 21.5155 114.865 21.5152C114.725 21.5149 105.629 21.5045 105.545 21.4765C105.041 21.2787 102.612 23.577 101.886 24.1088C99.7581 17.8405 91.5139 22.5815 90.37 25.3862C89.8788 25.5178 89.6584 25.426 89.4071 25.4249C89.4898 23.2911 89.208 21.9607 87.8665 21.2828C87.1397 20.8878 84.1693 21.2828 84.1693 21.2828L89.2146 11.1793C89.4657 10.8709 88.9833 10.56 88.9833 10.56H84.4388C84.2432 10.672 84.0151 10.9469 84.0151 10.9469C84.0151 10.9469 75.4279 27.6636 74.9254 28.5607C74.4233 29.4578 68.1468 32.8189 68.1468 32.8189C68.202 32.2016 72.2447 25.1364 72.3837 23.7606C72.5483 20.1948 68.4936 21.3217 68.4936 21.3217C68.4936 21.3217 66.1975 22.8537 64.103 23.9154C63.6529 20.0103 60.2514 21.3604 60.2514 21.3604L56.4 23.8767L57.0932 22.0574L57.2474 21.3604L52.6253 21.2444C52.0953 21.6362 51.162 23.7606 51.162 23.7606L49.6984 26.4703L43.1125 31.4642C42.4702 31.8271 42.8043 30.9609 42.8043 30.9609C42.8043 30.9609 47.2509 22.1951 47.3488 22.1345C47.7119 21.9107 47.4261 21.3607 47.4261 21.3607L42.9583 21.3217C42.9583 21.3217 42.2016 22.6138 42.0341 22.7541C39.9084 19.7427 32.8937 20.9649 29.1316 29.877C28.6507 30.4727 28.2787 30.8896 28.0147 30.9996C23.6038 36.1823 21.0819 31.0383 21.0819 31.0383L28.9777 15.9023C28.9777 15.9023 32.5699 7.82427 34.8318 5.52773C40.5567 1.64058 42.1881 5.29559 42.1881 5.29559C42.6828 6.44762 44.1912 10.6065 36.4109 12.612C35.3903 12.7133 35.7175 13.1923 35.7175 13.1923C37.982 15.1366 40.763 14.9345 40.763 14.9345C43.5015 15.4756 50.9221 11.3713 48.2348 4.79234C46.1377 2.03787 43.2478 1.13993 40.455 1.11481ZM157.963 11.3733C153.884 11.5301 153.646 17.0324 157.809 17.6055C161.86 17.7297 162.63 11.5552 157.963 11.373V11.3733ZM185.732 11.3733C181.318 11.3889 181.647 17.65 185.809 17.6055C189.972 17.2807 189.616 11.5243 185.732 11.373V11.3733ZM39.9928 23.1023C41.2985 23.1323 41.0701 24.7048 40.8403 24.9993C40.9802 25.4768 38.5677 29.5669 38.5677 29.5669C35.7764 33.0695 34.4466 32.4314 34.4466 32.4314C34.4466 32.4314 33.49 32.298 34.2156 30.4187C34.997 29.1009 36.5143 25.672 38.1055 23.6827C38.9435 23.2499 39.5573 23.0922 39.9928 23.1023ZM83.7838 23.4892C85.1532 23.6619 84.4773 24.9216 84.4773 24.9216L80.7026 32.3927C79.5024 33.8782 78.3919 33.3605 78.3919 33.3605C77.7771 32.909 78.8156 31.1928 78.8156 31.1928L82.359 24.2249C83.0565 23.4964 83.7838 23.4892 83.7838 23.4892ZM123.069 23.5282C124.137 23.3376 124.571 24.2249 124.571 24.2249C124.571 24.2249 124.633 24.3675 124.494 25.154C124.188 26.3609 120.874 32.1219 120.874 32.1219C119.478 33.5222 118.255 33.2445 118.255 33.2445C117.556 33.0458 117.831 32.0058 117.831 32.0058C117.831 32.0058 120.514 26.4747 121.798 24.1475C122.301 23.7768 122.713 23.5914 123.069 23.5282ZM97.3795 23.5669C97.9699 23.4667 98.5303 23.7112 98.4194 24.9603C97.7225 26.4467 94.9723 31.9071 94.4141 32.6636C94.3026 33.3097 91.494 34.3624 92.2185 32.0058C92.2185 32.0058 96.1581 24.6002 96.1857 24.2636C96.1994 24.095 96.7895 23.6668 97.3795 23.5669ZM8.68035 29.6449C10.9831 29.5895 13.0709 30.3413 13.0709 30.3413C13.0709 30.3413 12.5323 32.1459 7.44769 32.9736C5.04501 32.8273 3.78966 32.8379 3.7888 31.9674C4.96112 30.214 6.88925 29.6879 8.68035 29.6449Z" fill="#525050"/>
</svg>
