<svg width="183" height="47" viewBox="0 0 183 47" fill="none" xmlns="http://www.w3.org/2000/svg">
<g clip-path="url(#clip0_221_254)">
<path d="M23.4942 12.0248C22.7802 11.4444 21.9601 11.0099 21.0801 10.7457C20.3021 10.5 19.493 10.3681 18.6776 10.354H7.43555C6.06401 10.354 4.90633 10.6027 3.96251 11.1002C3.07334 11.5539 2.28878 12.1898 1.65949 12.9669C1.08295 13.6844 0.651689 14.5081 0.39001 15.3919C0.144398 16.1737 0.0130262 16.9873 0 17.807L0 29.0268C0 30.4058 0.247657 31.5686 0.74297 32.5153C1.17291 33.3749 1.77341 34.1371 2.50751 34.7549C3.24161 35.3727 4.0938 35.833 5.01163 36.1077C5.79029 36.3533 6.60004 36.4852 7.41605 36.4995H18.6561C20.029 36.4995 21.1867 36.2507 22.1292 35.7532C22.985 35.3213 23.7437 34.7181 24.3588 33.9808C24.9738 33.2434 25.4322 32.3874 25.7056 31.4654C25.9502 30.684 26.0815 29.8713 26.0956 29.0523V17.8364C26.0956 16.4574 25.8479 15.2946 25.3526 14.3479C24.9021 13.4512 24.269 12.6597 23.4942 12.0248ZM20.7954 29.0013C20.7954 29.7104 20.6121 30.2491 20.2454 30.6173C19.8788 30.9856 19.3491 31.1697 18.6561 31.1697H7.457C6.74978 31.1697 6.21287 30.9856 5.84626 30.6173C5.47965 30.2491 5.29634 29.7169 5.29634 29.0209V17.8462C5.29634 17.1371 5.47965 16.5985 5.84626 16.2302C6.21287 15.862 6.74263 15.6792 7.43555 15.6818H18.6366C19.3426 15.6818 19.8788 15.8659 20.2454 16.2341C20.6121 16.6024 20.7954 17.1365 20.7954 17.8364V29.0013ZM54.7965 12.0248C54.0822 11.4448 53.2622 11.0103 52.3823 10.7457C51.6036 10.5001 50.7939 10.3682 49.9779 10.354H38.7378C37.3649 10.354 36.2066 10.6027 35.2628 11.1002C34.3721 11.5532 33.5861 12.1892 32.9559 12.9669C32.3781 13.6841 31.9455 14.5079 31.6825 15.3919C31.4369 16.1737 31.3055 16.9873 31.2925 17.807V46.9592H36.5908V17.8462C36.5908 17.1371 36.7741 16.5985 37.1407 16.2302C37.5073 15.862 38.0358 15.6779 38.73 15.6779H49.9291C50.6351 15.6779 51.1713 15.862 51.5379 16.2302C51.9045 16.5985 52.0904 17.1339 52.0956 17.8364V29.0013C52.0956 29.7104 51.9123 30.2491 51.5457 30.6173C51.1791 30.9856 50.6507 31.1697 49.9564 31.1697H38.925V36.4897H49.9564C51.3293 36.4897 52.4876 36.2409 53.4314 35.7434C54.3197 35.2908 55.1035 34.6563 55.7325 33.8806C56.3103 33.1634 56.7429 32.3396 57.0059 31.4557C57.2513 30.6744 57.3827 29.8616 57.3959 29.0425V17.8364C57.3959 16.4574 57.1476 15.2946 56.651 14.3479C56.2011 13.4519 55.5694 12.6606 54.7965 12.0248ZM117.405 12.0248C116.691 11.4444 115.871 11.0099 114.991 10.7457C114.212 10.4999 113.402 10.3679 112.586 10.354H101.346C99.9746 10.354 98.8169 10.6027 97.8731 11.1002C97.0173 11.5321 96.2586 12.1353 95.6435 12.8727C95.0285 13.61 94.5702 14.466 94.2967 15.388C94.052 16.17 93.9206 16.9834 93.9067 17.8031V46.9592H99.203V17.8462C99.203 17.1371 99.3864 16.5985 99.753 16.2302C100.12 15.862 100.651 15.6792 101.346 15.6818H112.547C113.253 15.6818 113.789 15.8659 114.156 16.2341C114.523 16.6024 114.706 17.1365 114.706 17.8364V29.0013C114.706 29.7104 114.523 30.2491 114.156 30.6173C113.789 30.9856 113.26 31.1697 112.567 31.1697H101.533V36.4897H112.567C113.94 36.4897 115.097 36.2409 116.04 35.7434C116.929 35.2909 117.713 34.6563 118.343 33.8806C118.921 33.1634 119.353 32.3396 119.616 31.4557C119.861 30.6742 119.992 29.8615 120.006 29.0425V17.8364C120.006 16.4574 119.759 15.2946 119.263 14.3479C118.813 13.4512 118.18 12.6597 117.405 12.0248ZM67.9476 0.0117188H62.6513V29.0268C62.6513 30.4058 62.8989 31.5686 63.3942 32.5153C63.8246 33.3753 64.4257 34.1377 65.1605 34.7555C65.8953 35.3733 66.7483 35.8335 67.6668 36.1077C68.4455 36.3533 69.2552 36.4852 70.0712 36.4995H78.3043V31.1756H70.1141C69.4069 31.1756 68.87 30.9914 68.5034 30.6232C68.1368 30.2549 67.9535 29.7228 67.9535 29.0268V15.6818H78.3063V10.3579H67.9476V0.0117188ZM132.74 31.1756C132.034 31.1756 131.498 30.9914 131.131 30.6232C130.765 30.2549 130.581 29.7228 130.581 29.0268V0.0117188H125.285V29.0268C125.285 30.4058 125.533 31.5686 126.028 32.5153C126.458 33.3749 127.058 34.1371 127.793 34.7549C128.527 35.3727 129.379 35.833 130.297 36.1077C131.075 36.3536 131.885 36.4855 132.701 36.4995H141.129V31.1756H132.74ZM83.5149 10.3579H88.8112V36.4975H83.5149V10.3579ZM83.5149 0.0117188H88.8112V5.12603H83.5149V0.0117188ZM147.958 33.8865C148.587 34.6621 149.371 35.2967 150.259 35.7492C151.203 36.2468 152.361 36.4955 153.734 36.4955H164.768V31.1756H153.734C153.041 31.1756 152.512 30.9914 152.145 30.6232C151.778 30.2549 151.595 29.7143 151.595 29.0013V10.3579H146.297V29.0483C146.311 29.8674 146.442 30.6801 146.687 31.4615C146.949 32.3454 147.381 33.1691 147.958 33.8865Z" fill="#525050"/>
<path d="M167.093 10.3579V39.4709C167.093 40.18 166.909 40.7187 166.543 41.0869C166.176 41.4552 165.648 41.6393 164.954 41.6393H146.297V46.9593H164.954C166.326 46.9593 167.485 46.7105 168.429 46.213C169.317 45.7604 170.101 45.1259 170.73 44.3502C171.304 43.6335 171.734 42.8112 171.995 41.9292C172.241 41.1479 172.372 40.3351 172.385 39.516V10.3579H167.093ZM182.642 35.7395C182.655 35.8372 182.644 35.9363 182.613 36.0295C182.581 36.1227 182.529 36.2074 182.46 36.2774C182.391 36.3474 182.308 36.4007 182.215 36.4334C182.123 36.4661 182.024 36.4773 181.927 36.4662H178.183C178.084 36.4717 177.986 36.4572 177.894 36.4235C177.801 36.3899 177.716 36.3377 177.644 36.2703C177.58 36.1986 177.53 36.1144 177.498 36.0228C177.467 35.9312 177.454 35.8342 177.461 35.7375V32.01C177.454 31.9122 177.467 31.8139 177.498 31.721C177.53 31.6282 177.579 31.5426 177.644 31.4694C177.716 31.4043 177.8 31.3545 177.892 31.3229C177.983 31.2912 178.08 31.2784 178.177 31.2853H181.919C182.016 31.2728 182.115 31.2826 182.208 31.314C182.3 31.3455 182.385 31.3977 182.454 31.4668C182.524 31.5359 182.577 31.62 182.61 31.7127C182.642 31.8055 182.654 31.9045 182.642 32.0022V35.7395Z" fill="#525050"/>
</g>
<defs>
<clipPath id="clip0_221_254">
<rect width="182.666" height="46.9714" fill="white"/>
</clipPath>
</defs>
</svg>
