<svg width="121" height="60" viewBox="0 0 121 60" fill="none" xmlns="http://www.w3.org/2000/svg">
<path d="M0.876758 18.1V14.5H20.9018V18.1H12.8018V46H8.97676V18.1H0.876758ZM24.7162 25.3V46H21.1162V25.3H24.7162ZM30.9712 29.26C30.4912 28.9 30.0562 28.645 29.6662 28.495C29.2762 28.315 28.7812 28.225 28.1812 28.225C27.2812 28.225 26.5762 28.45 26.0662 28.9C25.5562 29.35 25.1962 29.965 24.9862 30.745C24.8062 31.525 24.7162 32.41 24.7162 33.4H23.0962C23.0962 31.75 23.3812 30.295 23.9512 29.035C24.5512 27.745 25.3162 26.725 26.2462 25.975C27.1762 25.225 28.1212 24.85 29.0812 24.85C29.8312 24.85 30.5212 24.955 31.1512 25.165C31.8112 25.345 32.4112 25.72 32.9512 26.29L30.9712 29.26ZM38.161 39.61C38.161 40.39 38.341 41.065 38.701 41.635C39.091 42.205 39.616 42.64 40.276 42.94C40.966 43.21 41.746 43.345 42.616 43.345C43.726 43.345 44.716 43.12 45.586 42.67C46.486 42.22 47.191 41.59 47.701 40.78C48.241 39.94 48.511 38.98 48.511 37.9L49.231 40.6C49.231 41.92 48.826 43.015 48.016 43.885C47.236 44.755 46.261 45.4 45.091 45.82C43.951 46.24 42.811 46.45 41.671 46.45C40.411 46.45 39.226 46.195 38.116 45.685C37.036 45.145 36.166 44.38 35.506 43.39C34.846 42.4 34.516 41.2 34.516 39.79C34.516 37.78 35.221 36.175 36.631 34.975C38.071 33.745 40.066 33.13 42.616 33.13C44.116 33.13 45.361 33.31 46.351 33.67C47.371 34 48.181 34.39 48.781 34.84C49.381 35.26 49.786 35.605 49.996 35.875V37.99C48.946 37.27 47.866 36.76 46.756 36.46C45.646 36.13 44.461 35.965 43.201 35.965C42.031 35.965 41.071 36.115 40.321 36.415C39.601 36.715 39.061 37.135 38.701 37.675C38.341 38.215 38.161 38.86 38.161 39.61ZM37.621 30.07L35.866 27.415C36.646 26.845 37.711 26.275 39.061 25.705C40.441 25.135 42.091 24.85 44.011 24.85C45.631 24.85 47.041 25.105 48.241 25.615C49.471 26.095 50.416 26.8 51.076 27.73C51.766 28.66 52.111 29.8 52.111 31.15V46H48.511V31.645C48.511 30.925 48.391 30.34 48.151 29.89C47.911 29.41 47.566 29.035 47.116 28.765C46.696 28.495 46.201 28.3 45.631 28.18C45.061 28.06 44.461 28 43.831 28C42.811 28 41.881 28.12 41.041 28.36C40.231 28.6 39.541 28.885 38.971 29.215C38.401 29.545 37.951 29.83 37.621 30.07ZM54.6113 25.3H58.6613L64.5113 39.925L70.3613 25.3H74.4113L64.5113 47.575L54.6113 25.3ZM85.1565 46.45C83.2365 46.45 81.5265 46 80.0265 45.1C78.5565 44.17 77.4015 42.895 76.5615 41.275C75.7515 39.655 75.3465 37.78 75.3465 35.65C75.3465 33.49 75.7665 31.6 76.6065 29.98C77.4765 28.36 78.6765 27.1 80.2065 26.2C81.7665 25.3 83.5665 24.85 85.6065 24.85C87.6465 24.85 89.3865 25.285 90.8265 26.155C92.2965 26.995 93.4215 28.21 94.2015 29.8C94.9815 31.39 95.3715 33.28 95.3715 35.47C95.3715 35.68 95.3565 35.905 95.3265 36.145C95.3265 36.355 95.3265 36.49 95.3265 36.55H77.6415V33.49H92.4915L91.0515 35.56C91.1415 35.41 91.2315 35.185 91.3215 34.885C91.4115 34.555 91.4565 34.285 91.4565 34.075C91.4565 32.845 91.2015 31.78 90.6915 30.88C90.2115 29.98 89.5365 29.275 88.6665 28.765C87.7965 28.255 86.7765 28 85.6065 28C84.2265 28 83.0415 28.3 82.0515 28.9C81.0915 29.47 80.3415 30.31 79.8015 31.42C79.2915 32.5 79.0215 33.835 78.9915 35.425C78.9915 37.045 79.2465 38.425 79.7565 39.565C80.2665 40.705 81.0165 41.575 82.0065 42.175C82.9965 42.775 84.1965 43.075 85.6065 43.075C87.0165 43.075 88.2615 42.775 89.3415 42.175C90.4215 41.545 91.3365 40.6 92.0865 39.34L95.0115 41.185C93.9315 42.925 92.5665 44.245 90.9165 45.145C89.2965 46.015 87.3765 46.45 85.1565 46.45ZM113.581 33.4C113.581 31.69 113.206 30.4 112.456 29.53C111.706 28.66 110.611 28.225 109.171 28.225C108.121 28.225 107.191 28.45 106.381 28.9C105.601 29.32 104.986 29.92 104.536 30.7C104.116 31.48 103.906 32.38 103.906 33.4V46H100.306V25.3H103.906V28.54C104.596 27.28 105.451 26.35 106.471 25.75C107.521 25.15 108.721 24.85 110.071 24.85C112.261 24.85 113.986 25.585 115.246 27.055C116.536 28.495 117.181 30.46 117.181 32.95V46H113.581V33.4Z" fill="#070707"/>
</svg>
