<svg width="118" height="34" viewBox="0 0 118 34" fill="none" xmlns="http://www.w3.org/2000/svg">
<path d="M0.876758 4.1V0.499998H20.9018V4.1H12.8018V32H8.97676V4.1H0.876758ZM24.7162 11.3V32H21.1162V11.3H24.7162ZM30.9712 15.26C30.4912 14.9 30.0562 14.645 29.6662 14.495C29.2762 14.315 28.7812 14.225 28.1812 14.225C27.2812 14.225 26.5762 14.45 26.0662 14.9C25.5562 15.35 25.1962 15.965 24.9862 16.745C24.8062 17.525 24.7162 18.41 24.7162 19.4H23.0962C23.0962 17.75 23.3812 16.295 23.9512 15.035C24.5512 13.745 25.3162 12.725 26.2462 11.975C27.1762 11.225 28.1212 10.85 29.0812 10.85C29.8312 10.85 30.5212 10.955 31.1512 11.165C31.8112 11.345 32.4112 11.72 32.9512 12.29L30.9712 15.26ZM38.161 25.61C38.161 26.39 38.341 27.065 38.701 27.635C39.091 28.205 39.616 28.64 40.276 28.94C40.966 29.21 41.746 29.345 42.616 29.345C43.726 29.345 44.716 29.12 45.586 28.67C46.486 28.22 47.191 27.59 47.701 26.78C48.241 25.94 48.511 24.98 48.511 23.9L49.231 26.6C49.231 27.92 48.826 29.015 48.016 29.885C47.236 30.755 46.261 31.4 45.091 31.82C43.951 32.24 42.811 32.45 41.671 32.45C40.411 32.45 39.226 32.195 38.116 31.685C37.036 31.145 36.166 30.38 35.506 29.39C34.846 28.4 34.516 27.2 34.516 25.79C34.516 23.78 35.221 22.175 36.631 20.975C38.071 19.745 40.066 19.13 42.616 19.13C44.116 19.13 45.361 19.31 46.351 19.67C47.371 20 48.181 20.39 48.781 20.84C49.381 21.26 49.786 21.605 49.996 21.875V23.99C48.946 23.27 47.866 22.76 46.756 22.46C45.646 22.13 44.461 21.965 43.201 21.965C42.031 21.965 41.071 22.115 40.321 22.415C39.601 22.715 39.061 23.135 38.701 23.675C38.341 24.215 38.161 24.86 38.161 25.61ZM37.621 16.07L35.866 13.415C36.646 12.845 37.711 12.275 39.061 11.705C40.441 11.135 42.091 10.85 44.011 10.85C45.631 10.85 47.041 11.105 48.241 11.615C49.471 12.095 50.416 12.8 51.076 13.73C51.766 14.66 52.111 15.8 52.111 17.15V32H48.511V17.645C48.511 16.925 48.391 16.34 48.151 15.89C47.911 15.41 47.566 15.035 47.116 14.765C46.696 14.495 46.201 14.3 45.631 14.18C45.061 14.06 44.461 14 43.831 14C42.811 14 41.881 14.12 41.041 14.36C40.231 14.6 39.541 14.885 38.971 15.215C38.401 15.545 37.951 15.83 37.621 16.07ZM54.6113 11.3H58.6613L64.5113 25.925L70.3613 11.3H74.4113L64.5113 33.575L54.6113 11.3ZM85.1565 32.45C83.2365 32.45 81.5265 32 80.0265 31.1C78.5565 30.17 77.4015 28.895 76.5615 27.275C75.7515 25.655 75.3465 23.78 75.3465 21.65C75.3465 19.49 75.7665 17.6 76.6065 15.98C77.4765 14.36 78.6765 13.1 80.2065 12.2C81.7665 11.3 83.5665 10.85 85.6065 10.85C87.6465 10.85 89.3865 11.285 90.8265 12.155C92.2965 12.995 93.4215 14.21 94.2015 15.8C94.9815 17.39 95.3715 19.28 95.3715 21.47C95.3715 21.68 95.3565 21.905 95.3265 22.145C95.3265 22.355 95.3265 22.49 95.3265 22.55H77.6415V19.49H92.4915L91.0515 21.56C91.1415 21.41 91.2315 21.185 91.3215 20.885C91.4115 20.555 91.4565 20.285 91.4565 20.075C91.4565 18.845 91.2015 17.78 90.6915 16.88C90.2115 15.98 89.5365 15.275 88.6665 14.765C87.7965 14.255 86.7765 14 85.6065 14C84.2265 14 83.0415 14.3 82.0515 14.9C81.0915 15.47 80.3415 16.31 79.8015 17.42C79.2915 18.5 79.0215 19.835 78.9915 21.425C78.9915 23.045 79.2465 24.425 79.7565 25.565C80.2665 26.705 81.0165 27.575 82.0065 28.175C82.9965 28.775 84.1965 29.075 85.6065 29.075C87.0165 29.075 88.2615 28.775 89.3415 28.175C90.4215 27.545 91.3365 26.6 92.0865 25.34L95.0115 27.185C93.9315 28.925 92.5665 30.245 90.9165 31.145C89.2965 32.015 87.3765 32.45 85.1565 32.45ZM113.581 19.4C113.581 17.69 113.206 16.4 112.456 15.53C111.706 14.66 110.611 14.225 109.171 14.225C108.121 14.225 107.191 14.45 106.381 14.9C105.601 15.32 104.986 15.92 104.536 16.7C104.116 17.48 103.906 18.38 103.906 19.4V32H100.306V11.3H103.906V14.54C104.596 13.28 105.451 12.35 106.471 11.75C107.521 11.15 108.721 10.85 110.071 10.85C112.261 10.85 113.986 11.585 115.246 13.055C116.536 14.495 117.181 16.46 117.181 18.95V32H113.581V19.4Z" fill="white"/>
</svg>
