<svg width="121" height="45" viewBox="0 0 121 45" fill="none" xmlns="http://www.w3.org/2000/svg">
<path d="M0.45 10.1V6.5H20.475V10.1H12.375V38H8.55V10.1H0.45ZM24.2895 17.3V38H20.6895V17.3H24.2895ZM30.5445 21.26C30.0645 20.9 29.6295 20.645 29.2395 20.495C28.8495 20.315 28.3545 20.225 27.7545 20.225C26.8545 20.225 26.1495 20.45 25.6395 20.9C25.1295 21.35 24.7695 21.965 24.5595 22.745C24.3795 23.525 24.2895 24.41 24.2895 25.4H22.6695C22.6695 23.75 22.9545 22.295 23.5245 21.035C24.1245 19.745 24.8895 18.725 25.8195 17.975C26.7495 17.225 27.6945 16.85 28.6545 16.85C29.4045 16.85 30.0945 16.955 30.7245 17.165C31.3845 17.345 31.9845 17.72 32.5245 18.29L30.5445 21.26ZM37.7343 31.61C37.7343 32.39 37.9143 33.065 38.2743 33.635C38.6643 34.205 39.1893 34.64 39.8493 34.94C40.5393 35.21 41.3193 35.345 42.1893 35.345C43.2993 35.345 44.2893 35.12 45.1593 34.67C46.0593 34.22 46.7643 33.59 47.2743 32.78C47.8143 31.94 48.0843 30.98 48.0843 29.9L48.8043 32.6C48.8043 33.92 48.3993 35.015 47.5893 35.885C46.8093 36.755 45.8343 37.4 44.6643 37.82C43.5243 38.24 42.3843 38.45 41.2443 38.45C39.9843 38.45 38.7993 38.195 37.6893 37.685C36.6093 37.145 35.7393 36.38 35.0793 35.39C34.4193 34.4 34.0893 33.2 34.0893 31.79C34.0893 29.78 34.7943 28.175 36.2043 26.975C37.6443 25.745 39.6393 25.13 42.1893 25.13C43.6893 25.13 44.9343 25.31 45.9243 25.67C46.9443 26 47.7543 26.39 48.3543 26.84C48.9543 27.26 49.3593 27.605 49.5693 27.875V29.99C48.5193 29.27 47.4393 28.76 46.3293 28.46C45.2193 28.13 44.0343 27.965 42.7743 27.965C41.6043 27.965 40.6443 28.115 39.8943 28.415C39.1743 28.715 38.6343 29.135 38.2743 29.675C37.9143 30.215 37.7343 30.86 37.7343 31.61ZM37.1943 22.07L35.4393 19.415C36.2193 18.845 37.2843 18.275 38.6343 17.705C40.0143 17.135 41.6643 16.85 43.5843 16.85C45.2043 16.85 46.6143 17.105 47.8143 17.615C49.0443 18.095 49.9893 18.8 50.6493 19.73C51.3393 20.66 51.6843 21.8 51.6843 23.15V38H48.0843V23.645C48.0843 22.925 47.9643 22.34 47.7243 21.89C47.4843 21.41 47.1393 21.035 46.6893 20.765C46.2693 20.495 45.7743 20.3 45.2043 20.18C44.6343 20.06 44.0343 20 43.4043 20C42.3843 20 41.4543 20.12 40.6143 20.36C39.8043 20.6 39.1143 20.885 38.5443 21.215C37.9743 21.545 37.5243 21.83 37.1943 22.07ZM54.1846 17.3H58.2346L64.0846 31.925L69.9346 17.3H73.9846L64.0846 39.575L54.1846 17.3ZM84.7297 38.45C82.8097 38.45 81.0997 38 79.5997 37.1C78.1297 36.17 76.9747 34.895 76.1347 33.275C75.3247 31.655 74.9197 29.78 74.9197 27.65C74.9197 25.49 75.3397 23.6 76.1797 21.98C77.0497 20.36 78.2497 19.1 79.7797 18.2C81.3397 17.3 83.1397 16.85 85.1797 16.85C87.2197 16.85 88.9597 17.285 90.3997 18.155C91.8697 18.995 92.9947 20.21 93.7747 21.8C94.5547 23.39 94.9447 25.28 94.9447 27.47C94.9447 27.68 94.9297 27.905 94.8997 28.145C94.8997 28.355 94.8997 28.49 94.8997 28.55H77.2147V25.49H92.0647L90.6247 27.56C90.7147 27.41 90.8047 27.185 90.8947 26.885C90.9847 26.555 91.0297 26.285 91.0297 26.075C91.0297 24.845 90.7747 23.78 90.2647 22.88C89.7847 21.98 89.1097 21.275 88.2397 20.765C87.3697 20.255 86.3497 20 85.1797 20C83.7997 20 82.6147 20.3 81.6247 20.9C80.6647 21.47 79.9147 22.31 79.3747 23.42C78.8647 24.5 78.5947 25.835 78.5647 27.425C78.5647 29.045 78.8197 30.425 79.3297 31.565C79.8397 32.705 80.5897 33.575 81.5797 34.175C82.5697 34.775 83.7697 35.075 85.1797 35.075C86.5897 35.075 87.8347 34.775 88.9147 34.175C89.9947 33.545 90.9097 32.6 91.6597 31.34L94.5847 33.185C93.5047 34.925 92.1397 36.245 90.4897 37.145C88.8697 38.015 86.9497 38.45 84.7297 38.45ZM113.154 25.4C113.154 23.69 112.779 22.4 112.029 21.53C111.279 20.66 110.184 20.225 108.744 20.225C107.694 20.225 106.764 20.45 105.954 20.9C105.174 21.32 104.559 21.92 104.109 22.7C103.689 23.48 103.479 24.38 103.479 25.4V38H99.8789V17.3H103.479V20.54C104.169 19.28 105.024 18.35 106.044 17.75C107.094 17.15 108.294 16.85 109.644 16.85C111.834 16.85 113.559 17.585 114.819 19.055C116.109 20.495 116.754 22.46 116.754 24.95V38H113.154V25.4Z" fill="white"/>
</svg>
