<svg width="35" height="35" viewBox="0 0 35 35" fill="none" xmlns="http://www.w3.org/2000/svg">
<g clip-path="url(#clip0_1044_150)">
<path d="M0 18.9407C0 18.0019 0 17.0722 0 16.1334C0.0273509 16.0514 0.0547017 15.9694 0.0729357 15.8873C0.154988 15.3222 0.20969 14.7571 0.319094 14.2011C1.1852 9.81701 3.39151 6.2441 6.95624 3.55529C10.9403 0.547483 15.4441 -0.528038 20.3673 0.246702C23.9594 0.811806 27.0865 2.37951 29.6666 4.94071C33.8239 9.05139 35.5561 14.0553 34.845 19.8522C34.3709 23.7259 32.6752 27.0618 29.9219 29.8326C27.1959 32.5761 23.9047 34.2441 20.0755 34.8183C19.6562 34.8821 19.2368 34.9459 18.8083 35.0097C17.9148 35.0097 17.0305 35.0097 16.137 35.0097C15.8088 34.955 15.4715 34.9003 15.1433 34.8548C11.3233 34.3079 8.02292 32.7037 5.2696 30.0058C2.47981 27.2714 0.793175 23.9628 0.200573 20.0983C0.136754 19.7063 0.0638187 19.3235 0 18.9407ZM26.1292 18.0475C26.0836 18.1477 26.0471 18.248 25.9924 18.3483C25.7007 18.9498 25.3725 19.5423 25.1355 20.1621C24.7525 21.1829 24.7343 22.2402 25.1537 23.261C25.4181 23.9082 25.9013 24.2819 26.6215 24.3001C27.2962 24.3092 27.825 23.9355 28.1076 23.2428C28.3993 22.541 28.454 21.8027 28.3446 21.0644C28.144 19.8066 27.5332 18.7311 26.8221 17.7011C26.7583 17.61 26.5851 17.61 26.4574 17.5644C26.8859 16.8717 27.1047 16.1152 27.1138 15.2949C27.1321 14.3287 26.9315 13.4173 26.3298 12.6334C25.5275 11.6035 24.2967 11.5944 23.4944 12.6152C23.3121 12.8431 23.1662 13.1074 23.0477 13.3717C22.683 14.2102 22.6192 15.0852 22.765 15.9785C22.8836 16.7168 23.148 17.3821 23.6767 17.929C24.3332 18.6035 25.1628 18.6764 25.9286 18.1295C25.9742 18.0931 26.0563 18.0839 26.1292 18.0475ZM17.5775 23.8626C17.0214 23.9173 16.4652 23.9446 15.9182 24.0358C13.7484 24.3821 11.8429 25.3574 10.0925 26.6608C9.75515 26.916 9.42694 27.1803 9.10784 27.4537C9.04402 27.5084 9.04402 27.6269 9.01667 27.7089C9.10784 27.7272 9.20813 27.7727 9.29018 27.7454C9.45429 27.6907 9.60016 27.5996 9.75515 27.5266C12.6088 26.1777 15.6173 25.6764 18.7536 25.9589C21.1513 26.1777 23.4215 26.8248 25.5913 27.8365C25.7007 27.8912 25.8466 27.8457 25.9833 27.8548C25.9286 27.7454 25.9013 27.5996 25.8192 27.5266C25.4181 27.1712 25.0169 26.8248 24.5884 26.4967C22.5189 24.9199 20.2396 23.9082 17.5775 23.8626ZM7.89529 15.1855C7.91352 16.0787 8.09586 16.9264 8.63376 17.6647C9.4634 18.7858 10.7398 18.7858 11.5785 17.6738C12.5632 16.3613 12.5723 14.0462 11.5968 12.7246C10.7489 11.5761 9.44517 11.5852 8.61553 12.7428C8.08674 13.472 7.91352 14.3014 7.89529 15.1855Z" fill="#FEB81D"/>
<path d="M17.5784 23.8618C20.2314 23.9074 22.5198 24.9191 24.5893 26.4959C25.0178 26.8149 25.419 27.1704 25.8201 27.5259C25.9022 27.5988 25.9295 27.7446 25.9842 27.854C25.8566 27.854 25.7016 27.8905 25.5922 27.8358C23.4224 26.8241 21.1431 26.1678 18.7545 25.9582C15.6091 25.6756 12.6097 26.186 9.75605 27.5259C9.60106 27.5988 9.45519 27.6899 9.29109 27.7446C9.20903 27.772 9.10875 27.7173 9.01758 27.7082C9.04493 27.617 9.04493 27.4985 9.10875 27.453C9.42784 27.1795 9.75605 26.9152 10.0934 26.66C11.8438 25.3566 13.7402 24.3905 15.9191 24.035C16.4661 23.9438 17.0314 23.9165 17.5784 23.8618Z" fill="#434141"/>
<path d="M26.1289 18.0469C26.0559 18.0743 25.9739 18.0925 25.9101 18.1381C25.1442 18.6849 24.3237 18.612 23.6582 17.9375C23.1294 17.3998 22.865 16.7253 22.7465 15.987C22.6006 15.0938 22.6644 14.2188 23.0291 13.3802C23.1476 13.1159 23.2935 12.8516 23.4758 12.6237C24.2781 11.5938 25.5089 11.6029 26.3112 12.642C26.9129 13.4258 27.1135 14.3373 27.0953 15.3034C27.0862 16.1146 26.8673 16.8711 26.4388 17.573C26.375 17.6641 26.3112 17.7644 26.2474 17.8555C26.22 17.9011 26.2018 17.9466 26.1745 17.9831L26.1836 17.974C26.1653 18.0013 26.1471 18.0287 26.1289 18.0469Z" fill="#424142"/>
<path d="M7.89453 15.1851C7.91277 14.301 8.08599 13.4715 8.61477 12.7332C9.44441 11.5666 10.7481 11.5666 11.596 12.715C12.5715 14.0366 12.5624 16.3517 11.5778 17.6642C10.739 18.7762 9.46265 18.7762 8.633 17.6551C8.0951 16.926 7.91277 16.0783 7.89453 15.1851Z" fill="#424142"/>
<path d="M26.2562 17.8553C26.32 17.7642 26.3839 17.6639 26.4477 17.5728C26.5753 17.6183 26.7577 17.6183 26.8124 17.7095C27.5235 18.7394 28.1343 19.8149 28.3349 21.0728C28.4534 21.811 28.3896 22.5493 28.0979 23.2511C27.8152 23.9438 27.2773 24.3175 26.6118 24.3084C25.8916 24.2993 25.4084 23.9165 25.144 23.2694C24.7246 22.2394 24.7428 21.1912 25.1257 20.1704C25.3628 19.5415 25.7001 18.9582 25.9827 18.3566C26.0283 18.2563 26.0739 18.1561 26.1195 18.0558L26.1104 18.0649C26.1377 18.0376 26.1559 18.0103 26.1833 17.992L26.1742 18.0011C26.2106 17.9465 26.2289 17.9009 26.2562 17.8553Z" fill="#54A5F6"/>
<path d="M26.1921 17.9829C26.1647 18.0103 26.1465 18.0376 26.1191 18.0558C26.1465 18.0285 26.1647 18.0011 26.1921 17.9829Z" fill="#FEB81D"/>
</g>
<defs>
<clipPath id="clip0_1044_150">
<rect width="35" height="35" fill="white"/>
</clipPath>
</defs>
</svg>
