<svg width="35" height="35" viewBox="0 0 35 35" fill="none" xmlns="http://www.w3.org/2000/svg">
<g clip-path="url(#clip0_1044_122)">
<path d="M18.7991 35.0001C17.9061 35.0001 17.0223 35.0001 16.1293 35.0001C15.8012 34.9454 15.4641 34.8908 15.136 34.8452C11.3271 34.2893 8.0194 32.6947 5.26751 29.9975C2.47917 27.2638 0.793416 23.9561 0.201122 20.0925C0.146449 19.7098 0.0735511 19.318 0.00976562 18.9353C0.00976562 18.0058 0.00976562 17.0673 0.00976562 16.1287C0.02799 16.0832 0.0735511 16.0376 0.0735511 15.9829C0.255795 13.8507 0.820752 11.8186 1.74109 9.88685C2.23314 10.4883 2.69787 11.0988 3.20815 11.682C4.76634 13.4497 6.63434 14.7619 8.92151 15.4362C9.09464 15.4909 9.33156 15.4544 9.48646 15.3633C10.5982 14.7345 11.564 13.9236 12.3841 12.9486C13.9059 11.1261 15.0905 9.11231 15.4185 6.7158C15.5916 5.44009 15.4367 4.20083 14.6258 3.14382C14.0152 2.35105 13.2134 1.79521 12.1746 1.941C11.564 2.03213 10.9444 2.28727 10.4068 2.59708C9.60492 3.06181 8.86683 3.6541 8.0923 4.1735C7.98295 4.24639 7.79159 4.31018 7.67313 4.26462C7.31776 4.14616 6.98061 3.97303 6.64346 3.82723C6.69813 3.77256 6.7528 3.71789 6.81659 3.67232C11.6278 0.0912258 16.9311 -0.865556 22.6901 0.792866C24.7585 1.39427 26.6448 2.39661 28.3214 3.76345C28.1665 3.83634 28.0025 3.89102 27.8567 3.98214C27.3555 4.31929 26.9637 4.18261 26.499 3.82723C25.688 3.22583 24.8496 2.64264 23.9475 2.18703C22.5169 1.46717 21.1228 1.89544 20.2389 3.24405C19.4917 4.37396 19.4097 5.62234 19.601 6.92538C19.7924 8.21021 20.3209 9.35834 20.9405 10.4791C22.0066 12.4383 23.4464 14.042 25.3508 15.2266C25.6333 15.3997 25.8793 15.4453 26.2074 15.336C27.5013 14.9168 28.6768 14.288 29.7611 13.4862C31.128 12.4656 32.2214 11.1899 33.2329 9.84129C33.2511 9.85952 33.2602 9.87774 33.2784 9.89596C34.7911 13.0579 35.3287 16.3839 34.8549 19.8556C34.3355 23.6827 32.7044 26.9996 29.9981 29.7515C27.2644 32.5307 23.9567 34.2256 20.084 34.7996C19.6375 34.8634 19.2183 34.9363 18.7991 35.0001ZM12.293 28.7765C12.5026 28.8676 12.7031 28.9678 12.9127 29.0407C15.0722 29.8153 17.2956 29.9975 19.5555 29.6512C20.576 29.4963 21.5784 29.2412 22.5078 28.7856C23.2095 28.4029 23.9475 28.0839 24.5945 27.6374C26.7632 26.1339 28.2121 24.1383 28.5857 21.4685C28.613 21.2498 28.5583 20.9855 28.449 20.7942C28.2667 20.4752 27.9205 20.4479 27.5742 20.4479C20.7947 20.4479 14.0243 20.4479 7.24486 20.4479C7.16285 20.4479 7.08084 20.4479 7.00794 20.4479C6.47944 20.4844 6.1514 20.8306 6.21518 21.35C6.26985 21.7965 6.34275 22.2521 6.47943 22.6804C7.41799 25.6692 9.50469 27.5554 12.293 28.7765Z" fill="#FEB81D"/>
<path d="M28.2931 3.76313C28.9765 3.52621 29.6508 3.24373 30.3524 3.06149C32.3115 2.53298 33.9244 3.62645 34.2433 5.63113C34.462 7.04352 34.0702 8.31012 33.3868 9.51293C33.323 9.62228 33.2683 9.73163 33.2045 9.84097C32.1931 11.1896 31.0996 12.4653 29.7328 13.4859C28.6484 14.2968 27.473 14.9256 26.179 15.3356C25.851 15.4359 25.605 15.3994 25.3225 15.2263C23.418 14.0417 21.9783 12.438 20.9122 10.4788C20.3016 9.35803 19.764 8.20078 19.5727 6.92507C19.3813 5.63113 19.4724 4.37365 20.2105 3.24373C21.0944 1.90424 22.4886 1.46685 23.9192 2.18672C24.8122 2.64233 25.6596 3.22551 26.4706 3.82691C26.9353 4.17318 27.3272 4.31897 27.8283 3.98182C27.9741 3.88159 28.1381 3.83603 28.2931 3.76313Z" fill="#A50504"/>
<path d="M1.73081 9.89571C1.25697 9.07561 0.846921 8.22818 0.710238 7.28051C0.564443 6.25994 0.655565 5.28493 1.21141 4.38282C1.97684 3.15268 3.04296 2.7244 4.52825 3.11623C5.23901 3.30758 5.92242 3.58095 6.62406 3.82698C6.97033 3.98189 7.30748 4.14591 7.65374 4.26437C7.7722 4.30081 7.96356 4.24614 8.0729 4.17324C8.84744 3.65385 9.57642 3.06155 10.3874 2.59683C10.925 2.28702 11.5447 2.03187 12.1552 1.94075C13.194 1.79496 13.9958 2.3508 14.6064 3.14356C15.4173 4.20058 15.5814 5.43984 15.3991 6.71555C15.0711 9.11206 13.8865 11.1259 12.3648 12.9483C11.5447 13.9233 10.5788 14.7434 9.46707 15.363C9.31216 15.4542 9.06613 15.4815 8.90211 15.4359C6.62406 14.7616 4.74695 13.4495 3.18876 11.6817C2.6967 11.1076 2.22286 10.488 1.73081 9.89571Z" fill="#A50404"/>
<path d="M12.2928 28.7761C9.50442 27.5551 7.41773 25.6689 6.47917 22.6892C6.34248 22.2609 6.26047 21.8053 6.21491 21.3588C6.16024 20.8394 6.48828 20.4931 7.00768 20.4567C7.08969 20.4476 7.16258 20.4567 7.24459 20.4567C14.0241 20.4567 20.7945 20.4567 27.5739 20.4567C27.9202 20.4567 28.2665 20.4749 28.4487 20.803C28.5581 20.9943 28.6127 21.2586 28.5854 21.4773C28.2209 24.1471 26.7721 26.1427 24.5942 27.6462C23.9473 28.0927 23.2092 28.4116 22.5075 28.7944C22.4529 28.6577 22.4164 28.5119 22.3526 28.3843C21.2774 26.2612 19.5552 25.195 17.1678 25.2315C15.0446 25.2497 12.9762 26.7623 12.2928 28.7761Z" fill="#424042"/>
<path d="M12.293 28.7763C12.9764 26.7625 15.0449 25.2499 17.168 25.2226C19.5554 25.1861 21.2776 26.2523 22.3528 28.3754C22.4166 28.503 22.4622 28.6488 22.5078 28.7855C21.5692 29.2411 20.5669 29.4962 19.5554 29.6511C17.2956 29.9974 15.0722 29.8243 12.9126 29.0406C12.703 28.9677 12.5025 28.8675 12.293 28.7763Z" fill="#A40504"/>
</g>
<defs>
<clipPath id="clip0_1044_122">
<rect width="35" height="35" fill="white"/>
</clipPath>
</defs>
</svg>
