<svg width="35" height="35" viewBox="0 0 35 35" fill="none" xmlns="http://www.w3.org/2000/svg">
<g clip-path="url(#clip0_1044_130)">
<path d="M18.8089 35C17.9155 35 17.0311 35 16.1377 35C15.8095 34.9453 15.4721 34.8906 15.1439 34.8451C11.333 34.2982 8.02357 32.694 5.27025 29.9961C2.48046 27.2617 0.793824 23.9531 0.201222 20.0886C0.14652 19.7057 0.0735843 19.3138 0.00976562 18.931C0.00976562 17.9922 0.00976562 17.0625 0.00976562 16.1237C0.0553504 15.8047 0.110052 15.4857 0.155637 15.1667C0.848526 10.4453 3.04571 6.56251 6.82925 3.64585C10.8134 0.574233 15.3536 -0.537746 20.3315 0.236993C23.9235 0.792983 27.0507 2.36069 29.6399 4.91278C33.8154 9.02345 35.5659 14.0365 34.8457 19.8516C34.326 24.0261 32.4297 27.5534 29.3299 30.4063C26.7042 32.8216 23.6136 34.2982 20.0762 34.8177C19.6477 34.8724 19.2283 34.9362 18.8089 35ZM7.79565 25.2656C7.85035 25.3659 7.90505 25.4662 7.96887 25.5573C8.60706 26.3685 9.34553 27.0886 10.2116 27.6445C14.5695 30.3971 19.0642 30.5612 23.6409 28.2461C25.0267 27.5443 26.1937 26.5417 27.078 25.2383C27.8803 24.181 28.3817 22.987 28.5732 21.6654C28.6097 21.4011 28.5276 21.1185 28.5003 20.8451C28.2997 20.4987 27.9806 20.444 27.6159 20.444C20.8055 20.444 13.9952 20.444 7.18481 20.444C7.09364 20.444 6.98424 20.4167 6.9113 20.4531C6.71073 20.5625 6.51927 20.6901 6.32782 20.8177C6.28223 21.0091 6.17283 21.2188 6.2093 21.3919C6.35517 22.0755 6.48281 22.7865 6.7472 23.4245C7.02071 24.0899 7.44009 24.6641 7.79565 25.2656ZM11.9439 9.50653C11.8162 9.6159 11.7342 9.68882 11.643 9.75262C10.6401 10.5547 9.62816 11.3568 8.62529 12.1589C8.2515 12.4596 8.17856 12.8425 8.43384 13.1706C8.67999 13.4987 9.09937 13.5261 9.4914 13.2253C10.9775 12.0495 12.4726 10.8646 13.9587 9.6797C14.0043 9.64324 14.0499 9.58856 14.1046 9.53387C13.749 9.23309 13.4117 8.94142 13.0652 8.65887C11.8618 7.64715 10.6584 6.63543 9.45493 5.63283C9.10849 5.34116 8.70734 5.37762 8.45207 5.6784C8.19679 5.97918 8.24238 6.38022 8.57971 6.67189C8.76204 6.82684 8.94438 6.98179 9.12672 7.13673C10.0475 7.91147 10.9775 8.69533 11.9439 9.50653ZM20.7235 9.53387C20.7873 9.58856 20.8147 9.62501 20.8511 9.65236C22.3463 10.8464 23.8415 12.0313 25.3458 13.2253C25.4187 13.28 25.4917 13.3347 25.5737 13.3802C25.8655 13.5169 26.2028 13.4349 26.4034 13.1797C26.5948 12.9245 26.5948 12.569 26.3851 12.332C26.2848 12.2227 26.1663 12.1315 26.0478 12.0404C25.0723 11.2565 24.0877 10.4818 23.1121 9.69793C23.0483 9.64324 22.9845 9.57944 22.9116 9.51564C23.021 9.42449 23.103 9.34246 23.1851 9.26955C24.2153 8.40366 25.2455 7.54689 26.2666 6.67189C26.6039 6.38022 26.6404 5.97918 26.3942 5.6784C26.1481 5.38673 25.7378 5.34116 25.4187 5.6146C23.8506 6.89975 22.3007 8.21225 20.7235 9.53387Z" fill="#FEB81D"/>
<path d="M6.33594 20.8269C6.52739 20.7084 6.71885 20.5717 6.91942 20.4623C6.99236 20.4259 7.10176 20.4532 7.19293 20.4532C14.0033 20.4532 20.8137 20.4532 27.624 20.4532C27.9796 20.4532 28.3078 20.5079 28.5084 20.8542C28.3534 21.4649 28.1893 22.0756 28.0434 22.6954C27.779 23.78 27.0588 24.491 26.0742 24.6459C25.9739 24.6368 25.8736 24.6277 25.7733 24.6277C20.2028 24.6277 14.6324 24.6277 9.06191 24.6277C8.97986 24.6277 8.90692 24.6368 8.82487 24.6459C8.31432 24.6003 7.90405 24.3542 7.55761 23.9805C7.12 23.5157 6.87384 22.9415 6.71885 22.3308C6.5821 21.8204 6.46357 21.3282 6.33594 20.8269Z" fill="#FDFDFD"/>
<path d="M27.0871 25.2384C26.1936 26.5327 25.0357 27.5444 23.65 28.2463C19.0732 30.5614 14.5786 30.3973 10.2207 27.6447C9.34545 27.0978 8.6161 26.3778 7.97791 25.5575C7.90497 25.4663 7.85939 25.3661 7.80469 25.2658C8.11466 24.9924 8.45199 24.7554 8.88961 24.728C8.99901 24.7371 9.11753 24.7463 9.22693 24.7463C14.4054 24.7463 19.5929 24.7463 24.7713 24.7463C25.1998 24.7463 25.6375 24.7371 26.066 24.7371C26.4033 24.9012 26.7406 25.0653 27.0871 25.2384Z" fill="#FEFEFD"/>
<path d="M11.9431 9.5066C10.9767 8.6954 10.0468 7.91154 9.11684 7.12769C8.9345 6.97274 8.74305 6.82691 8.56982 6.66285C8.2325 6.36206 8.18691 5.97014 8.44219 5.66936C8.69746 5.36858 9.09861 5.33212 9.44505 5.62378C10.6485 6.62639 11.8519 7.63811 13.0554 8.64983C13.3927 8.93238 13.73 9.22404 14.0947 9.52483C14.04 9.57951 14.0035 9.6342 13.9488 9.67066C12.4628 10.8556 10.9767 12.0404 9.48152 13.2162C9.09861 13.517 8.67923 13.4897 8.42395 13.1615C8.17779 12.8334 8.24161 12.4506 8.61541 12.1498C9.61827 11.3477 10.6303 10.5457 11.6331 9.74358C11.7334 9.68889 11.8155 9.61597 11.9431 9.5066Z" fill="#434141"/>
<path d="M20.7227 9.53396C22.2999 8.21234 23.8498 6.90896 25.3997 5.60557C25.7187 5.33214 26.129 5.37771 26.3752 5.66938C26.6304 5.97016 26.594 6.38031 26.2475 6.66286C25.2264 7.53786 24.1962 8.39464 23.166 9.26052C23.0839 9.33344 22.9928 9.40636 22.8925 9.50662C22.9654 9.57953 23.0292 9.63422 23.0931 9.68891C24.0686 10.4728 25.0532 11.2475 26.0287 12.0314C26.1472 12.1225 26.2658 12.2136 26.3661 12.323C26.5849 12.5691 26.5849 12.9155 26.3843 13.1707C26.1928 13.4259 25.8464 13.5079 25.5546 13.3712C25.4726 13.3347 25.3997 13.2801 25.3267 13.2163C23.8315 12.0222 22.3364 10.8373 20.8321 9.64333C20.8138 9.62511 20.7865 9.58865 20.7227 9.53396Z" fill="#434141"/>
<path d="M8.8804 24.7279C8.44279 24.7552 8.11458 24.9831 7.79549 25.2656C7.43993 24.6641 7.02054 24.0898 6.75615 23.4427C6.49176 22.7956 6.36412 22.0937 6.21825 21.4102C6.18178 21.237 6.29119 21.0273 6.33677 20.8359C6.45529 21.3281 6.58293 21.8294 6.70145 22.3216C6.85644 22.9323 7.1026 23.4974 7.54021 23.9714C7.88666 24.3359 8.29692 24.582 8.80747 24.6367C8.83482 24.6641 8.85305 24.7005 8.8804 24.7279Z" fill="#494645"/>
<path d="M27.0856 25.2384C26.7482 25.0744 26.4018 24.9103 26.0645 24.7463C26.0645 24.7098 26.0645 24.6733 26.0736 24.6369C27.0673 24.491 27.7784 23.7801 28.0428 22.6864C28.1887 22.0757 28.3528 21.465 28.5078 20.8452C28.5352 21.1187 28.6172 21.4012 28.5807 21.6655C28.3802 22.978 27.8878 24.172 27.0856 25.2384Z" fill="#4A4846"/>
<path d="M26.0657 24.6369C26.0657 24.6734 26.0657 24.7098 26.0566 24.7463C25.6281 24.7463 25.1905 24.7554 24.762 24.7554C19.5835 24.7554 14.396 24.7554 9.21755 24.7554C9.10815 24.7554 8.98963 24.7463 8.88023 24.7372C8.86199 24.7007 8.83464 24.6643 8.81641 24.6369C8.89846 24.6278 8.9714 24.6187 9.05345 24.6187C14.6239 24.6187 20.1944 24.6187 25.7648 24.6187C25.8651 24.6096 25.9654 24.6278 26.0657 24.6369Z" fill="#999899"/>
</g>
<defs>
<clipPath id="clip0_1044_130">
<rect width="35" height="35" fill="white"/>
</clipPath>
</defs>
</svg>
