<svg width="35" height="35" viewBox="0 0 35 35" fill="none" xmlns="http://www.w3.org/2000/svg">
<g clip-path="url(#clip0_1044_141)">
<path d="M18.8089 34.9999C17.9155 34.9999 17.0311 34.9999 16.1377 34.9999C15.8095 34.9452 15.4721 34.8905 15.1439 34.8449C11.333 34.298 8.02357 32.6939 5.27025 29.9959C2.48046 27.2616 0.793824 23.953 0.201222 20.0884C0.14652 19.7056 0.0735843 19.3137 0.00976562 18.9308C0.00976562 18.0012 0.00976562 17.0624 0.00976562 16.1235C0.0553504 15.8045 0.110052 15.4855 0.155637 15.1665C0.848526 10.4543 3.0366 6.5897 6.8019 3.67303C10.7951 0.583186 15.3445 -0.537908 20.3315 0.236832C23.9235 0.792821 27.0507 2.36053 29.6399 4.91261C33.9431 9.16912 35.6662 14.3371 34.7727 20.3163C34.171 24.3176 32.2838 27.69 29.3026 30.4152C26.6769 32.8215 23.5953 34.2798 20.0671 34.8084C19.6477 34.8722 19.2283 34.9361 18.8089 34.9999ZM22.7657 26.186C22.7657 23.2876 20.4135 20.9269 17.5143 20.9178C14.606 20.9178 12.2447 23.2603 12.2356 26.1587C12.2265 29.0754 14.5878 31.4452 17.5052 31.4452C20.4135 31.4452 22.7657 29.0845 22.7657 26.186ZM9.79226 17.035C11.8527 17.0441 13.5211 15.4035 13.5302 13.3527C13.5393 11.3202 11.8983 9.6522 9.85608 9.63397C7.78653 9.61574 6.09989 11.2746 6.09989 13.3345C6.09989 15.367 7.75918 17.0259 9.79226 17.035ZM29.5578 13.3345C29.5578 11.2746 27.9077 9.62485 25.8472 9.62485C23.7868 9.62485 22.1457 11.2837 22.1457 13.3436C22.1457 15.3853 23.7959 17.0259 25.8381 17.035C27.9077 17.0441 29.5578 15.4035 29.5578 13.3345Z" fill="#FEB81D"/>
<path d="M22.7645 26.1862C22.7645 29.0847 20.4032 31.4453 17.504 31.4453C14.5866 31.4453 12.2253 29.0755 12.2344 26.1589C12.2435 23.2604 14.6048 20.9089 17.5131 20.918C20.4123 20.9271 22.7736 23.2878 22.7645 26.1862Z" fill="#414042"/>
<path d="M9.79198 17.035C7.74978 17.0259 6.09961 15.367 6.09961 13.3345C6.09961 11.2746 7.78625 9.61571 9.8558 9.63394C11.898 9.65217 13.539 11.3201 13.5299 13.3527C13.5208 15.4035 11.8524 17.0532 9.79198 17.035ZM9.81933 15.2576C10.886 15.2576 11.7612 14.3918 11.7521 13.3253C11.7521 12.2772 10.886 11.4113 9.83756 11.4113C8.76176 11.4022 7.89565 12.2498 7.88653 13.3253C7.87742 14.3918 8.74353 15.2576 9.81933 15.2576Z" fill="#FDFDFC"/>
<path d="M29.5567 13.3346C29.5567 15.3945 27.8974 17.0443 25.8369 17.0352C23.7856 17.026 22.1446 15.3854 22.1446 13.3437C22.1355 11.2839 23.7856 9.63411 25.8461 9.625C27.9065 9.625 29.5567 11.2747 29.5567 13.3346ZM27.7789 13.3529C27.788 12.2773 26.9401 11.4206 25.8643 11.4206C24.8067 11.4206 23.9497 12.2682 23.9406 13.3164C23.9315 14.3919 24.7794 15.2578 25.8461 15.2669C26.9127 15.2669 27.7697 14.4193 27.7789 13.3529Z" fill="#FDFDFC"/>
<path d="M9.81828 15.258C8.7516 15.258 7.88549 14.3921 7.8946 13.3257C7.90372 12.2593 8.76983 11.4116 9.84563 11.4116C10.8941 11.4207 11.7511 12.2775 11.7602 13.3257C11.7511 14.3921 10.885 15.258 9.81828 15.258Z" fill="#434243"/>
<path d="M27.7791 13.353C27.77 14.4285 26.9221 15.2671 25.8372 15.258C24.7705 15.2489 23.9226 14.383 23.9317 13.3075C23.9408 12.2593 24.8069 11.4116 25.8554 11.4116C26.9312 11.4207 27.7791 12.2684 27.7791 13.353Z" fill="#424143"/>
</g>
<defs>
<clipPath id="clip0_1044_141">
<rect width="35" height="35" fill="white"/>
</clipPath>
</defs>
</svg>
