<svg width="35" height="35" viewBox="0 0 35 35" fill="none" xmlns="http://www.w3.org/2000/svg">
<g clip-path="url(#clip0_1044_160)">
<path d="M0 18.9444C0 17.9603 0 16.9853 0 16.0012C0.0273509 15.9374 0.0638187 15.8645 0.0729357 15.8007C0.200573 15.0535 0.282626 14.2881 0.455848 13.55C1.59547 8.80256 4.25762 5.12122 8.40584 2.5698C12.08 0.309975 16.0914 -0.437226 20.3399 0.24619C23.9411 0.820259 27.0774 2.38756 29.6666 4.94809C33.8239 9.0577 35.5379 14.0603 34.8359 19.8557C34.4165 23.3092 32.9943 26.3618 30.6968 28.977C27.8614 32.2027 24.3149 34.1527 20.0573 34.7997C19.6379 34.8635 19.2185 34.9273 18.7992 34.9911C17.8601 34.9911 16.9302 34.9911 15.9911 34.9911C15.9091 34.9637 15.8362 34.9182 15.7541 34.909C13.8304 34.6995 11.9614 34.2438 10.2201 33.3964C4.60406 30.681 1.23991 26.2433 0.191456 20.0561C0.127637 19.6825 0.0638187 19.318 0 18.9444ZM26.038 26.8538C25.9195 26.7263 25.8648 26.6443 25.7828 26.5805C25.0443 25.9973 24.324 25.3686 23.54 24.8492C21.7895 23.6919 19.875 22.9994 17.7416 22.972C14.3592 22.9265 11.5968 24.4027 9.08961 26.5076C9.02579 26.5623 9.02579 26.6989 8.99844 26.7901C9.08961 26.7992 9.18989 26.8356 9.27195 26.8083C9.43605 26.7536 9.58192 26.6625 9.73691 26.5896C11.4874 25.7604 13.3381 25.2319 15.2709 25.0405C18.7992 24.6943 22.1633 25.3594 25.3725 26.8265C25.5001 26.8812 25.6187 26.9632 25.7463 26.9905C25.8192 26.9996 25.9104 26.9176 26.038 26.8538ZM9.01667 16.1379C9.01667 17.0673 9.19901 17.8783 9.68221 18.5982C10.5301 19.8557 11.8885 19.8648 12.7637 18.6255C13.6846 17.3134 13.6754 15.0809 12.7364 13.7869C11.8794 12.6023 10.5483 12.6115 9.70956 13.8143C9.21724 14.5341 9.03491 15.3451 9.01667 16.1379ZM21.4613 16.147C21.4613 17.0764 21.6437 17.8874 22.1269 18.6073C22.9747 19.8648 24.3332 19.8739 25.2084 18.6346C26.1292 17.3225 26.111 15.09 25.1719 13.796C24.3149 12.6115 22.9839 12.6297 22.1451 13.8234C21.6619 14.5432 21.4796 15.3542 21.4613 16.147ZM27.5697 10.4792C27.5788 10.4519 27.5879 10.4245 27.6061 10.3972C27.5059 10.3334 27.4147 10.2514 27.3144 10.1967C25.1993 9.13971 23.1115 9.18527 21.1149 10.461C20.659 10.7526 20.3308 11.2355 19.9753 11.6547C19.8659 11.7822 19.8385 11.9918 19.8203 12.165C19.7929 12.4748 19.9661 12.5932 20.2488 12.4657C20.4129 12.3928 20.5587 12.2743 20.6773 12.1467C22.291 10.4336 24.2602 9.85957 26.5486 10.2605C26.895 10.3243 27.2324 10.4063 27.5697 10.4792ZM7.35738 10.4428C7.47591 10.461 7.51237 10.4701 7.53972 10.461C7.6856 10.4336 7.83147 10.3972 7.97734 10.3699C10.3842 9.82312 12.5267 10.2605 14.2772 12.1012C14.3227 12.1467 14.3774 12.2014 14.423 12.247C14.6145 12.4383 14.8698 12.6661 15.0886 12.4566C15.2071 12.3472 15.1706 11.9554 15.0794 11.7458C14.8606 11.2082 14.4413 10.8072 13.9581 10.4883C12.4082 9.45863 10.7307 9.26728 8.95285 9.70466C8.39672 9.83224 7.87705 10.0509 7.35738 10.4428Z" fill="#E44D0A"/>
<path d="M26.0376 26.8535C25.91 26.9082 25.8188 26.9993 25.7459 26.9811C25.6183 26.9628 25.4997 26.8808 25.3721 26.817C22.1629 25.35 18.7988 24.6848 15.2705 25.031C13.3377 25.2224 11.4961 25.7509 9.73652 26.5801C9.58153 26.653 9.43566 26.7441 9.27156 26.7988C9.1895 26.8262 9.08922 26.7897 8.99805 26.7806C9.0254 26.6804 9.0254 26.5528 9.08922 26.4981C11.5964 24.4023 14.3588 22.9261 17.7412 22.9626C19.8655 22.9899 21.7891 23.6824 23.5396 24.8488C24.3237 25.3682 25.0348 25.9969 25.7824 26.5801C25.8644 26.6439 25.9191 26.7259 26.0376 26.8535Z" fill="#434041"/>
<path d="M9.01758 16.1379C9.0267 15.3451 9.21815 14.5341 9.71047 13.8143C10.5401 12.6115 11.8803 12.6023 12.7373 13.7869C13.6763 15.0809 13.6946 17.3225 12.7646 18.6255C11.8894 19.8648 10.531 19.8557 9.68312 18.5982C9.19992 17.8874 9.0267 17.0673 9.01758 16.1379Z" fill="#424041"/>
<path d="M21.4609 16.1467C21.4701 15.3539 21.6615 14.5429 22.1538 13.8231C22.9835 12.6202 24.3237 12.6111 25.1807 13.7957C26.1197 15.0897 26.1379 17.3221 25.2171 18.6343C24.3419 19.8736 22.9835 19.8645 22.1356 18.607C21.6433 17.8871 21.4701 17.067 21.4609 16.1467Z" fill="#424041"/>
<path d="M27.5693 10.4789C27.232 10.406 26.8946 10.324 26.5573 10.2693C24.269 9.86834 22.2906 10.4424 20.686 12.1555C20.5675 12.2831 20.4125 12.4106 20.2575 12.4744C19.9749 12.602 19.8016 12.4835 19.829 12.1737C19.8472 12.0006 19.8746 11.791 19.984 11.6634C20.3395 11.2443 20.6678 10.7522 21.1236 10.4697C23.1202 9.19404 25.208 9.14848 27.3231 10.2055C27.4325 10.2602 27.5237 10.3331 27.6149 10.406C27.5875 10.4242 27.5784 10.4515 27.5693 10.4789Z" fill="#3D3A3E"/>
<path d="M7.35742 10.4426C7.87709 10.0508 8.39676 9.8321 8.95289 9.69541C10.7307 9.25803 12.4082 9.44938 13.9581 10.4791C14.4413 10.798 14.8516 11.1989 15.0795 11.7365C15.1707 11.9461 15.2071 12.338 15.0886 12.4473C14.8698 12.6569 14.6145 12.4291 14.4231 12.2377C14.3775 12.1922 14.3228 12.1466 14.2772 12.0919C12.5267 10.2513 10.3843 9.81387 7.97738 10.3606C7.8315 10.3971 7.68563 10.4244 7.53976 10.4517C7.50329 10.4699 7.46683 10.4608 7.35742 10.4426Z" fill="#3D3A3E"/>
</g>
<defs>
<clipPath id="clip0_1044_160">
<rect width="35" height="35" fill="white"/>
</clipPath>
</defs>
</svg>
