<svg width="35" height="35" viewBox="0 0 35 35" fill="none" xmlns="http://www.w3.org/2000/svg">
<g clip-path="url(#clip0_1044_115)">
<path d="M18.8089 34.9999C17.9155 34.9999 17.0311 34.9999 16.1377 34.9999C15.8095 34.9452 15.4721 34.8905 15.1439 34.8449C11.3239 34.298 8.02357 32.6939 5.27025 29.996C2.48046 27.2616 0.793824 23.953 0.201222 20.0884C0.14652 19.7056 0.0735843 19.3137 0.00976562 18.9309C0.00976562 17.9921 0.00976562 17.0624 0.00976562 16.1236C0.0371165 16.0415 0.0644674 15.9595 0.0827013 15.8775C0.164754 15.3124 0.219456 14.7473 0.328859 14.1913C1.18585 9.81628 3.39216 6.24337 6.95689 3.55456C10.941 0.54675 15.4448 -0.52877 20.3679 0.245969C23.96 0.811073 27.0871 2.37878 29.6672 4.93998C33.8246 9.05066 35.5568 14.0546 34.8457 19.8514C34.3716 23.7251 32.6758 27.0611 29.9225 29.8319C27.1965 32.5754 23.9053 34.2434 20.0762 34.8176C19.6477 34.8723 19.2283 34.9361 18.8089 34.9999ZM17.5873 28.009C18.3257 27.9087 19.0824 27.8632 19.8118 27.7082C22.1093 27.2251 24.0056 26.0038 25.6922 24.4178C25.8016 24.3085 25.8563 24.1353 25.9293 23.9895C25.7652 24.0168 25.5828 23.9986 25.437 24.0624C22.9571 25.2108 20.3679 25.8762 17.6328 25.9673C14.7336 26.0585 11.9803 25.4569 9.382 24.1809C9.27259 24.1262 9.11761 24.1535 8.98085 24.1353C9.04467 24.2629 9.08114 24.427 9.18142 24.509C9.83784 25.0012 10.4851 25.5116 11.178 25.94C13.1382 27.1613 15.2533 27.9087 17.5873 28.009ZM11.643 13.4074C11.643 12.4413 11.4424 11.5754 10.8772 10.828C10.0567 9.74337 8.79851 9.74337 7.97799 10.828C6.966 12.1587 6.95689 14.5012 7.96887 15.8319C8.79851 16.9348 10.0658 16.9348 10.8863 15.8319C11.4333 15.1027 11.6248 14.2642 11.643 13.4074ZM23.65 13.2434C23.6591 14.2277 23.8506 15.0754 24.3976 15.8228C25.2182 16.9348 26.4763 16.9439 27.3151 15.8501C28.3453 14.5194 28.327 12.0949 27.2877 10.7915C27.0051 10.4361 26.6586 10.1535 26.2028 10.0624C25.5281 9.91654 24.9902 10.1718 24.5526 10.6639C23.8962 11.4113 23.6774 12.3319 23.65 13.2434Z" fill="#FEB81D"/>
<path d="M17.5869 28.0093C15.2529 27.8999 13.1378 27.1525 11.1777 25.9403C10.4848 25.5119 9.83746 25.0015 9.18104 24.5093C9.08076 24.4364 9.04429 24.2632 8.98047 24.1356C9.11722 24.1447 9.26309 24.1265 9.38162 24.1812C11.9891 25.4663 14.7333 26.0679 17.6325 25.9676C20.3675 25.8765 22.9568 25.2111 25.4366 24.0627C25.5825 23.9989 25.7648 24.008 25.9289 23.9897C25.8468 24.1356 25.8013 24.3088 25.6919 24.4181C24.0052 26.0041 22.1089 27.2254 19.8114 27.7085C19.0821 27.8634 18.3254 27.9181 17.5869 28.0093Z" fill="#434141"/>
<path d="M11.6415 13.4076C11.6324 14.2552 11.4318 15.1029 10.8848 15.832C10.0551 16.9349 8.79698 16.9349 7.96733 15.832C6.95535 14.5013 6.96447 12.1497 7.97645 10.8281C8.79698 9.74349 10.0551 9.74349 10.8756 10.8281C11.4409 11.5755 11.6324 12.4414 11.6415 13.4076Z" fill="#424141"/>
<path d="M23.6484 13.2433C23.6758 12.3318 23.8946 11.4204 24.5601 10.6639C24.9977 10.1717 25.5356 9.91647 26.2103 10.0623C26.6662 10.1626 27.0035 10.436 27.2952 10.7915C28.3437 12.104 28.3528 14.5193 27.3226 15.8501C26.4747 16.9438 25.2257 16.9347 24.4051 15.8227C23.849 15.0753 23.6576 14.2186 23.6484 13.2433Z" fill="#424142"/>
</g>
<defs>
<clipPath id="clip0_1044_115">
<rect width="35" height="35" fill="white"/>
</clipPath>
</defs>
</svg>
